solid OpenSCAD_Model
  facet normal 1 -0 0
    outer loop
      vertex 0 -5.5 6
      vertex 0 0 0
      vertex 0 0 6
    endloop
  endfacet
  facet normal 1 0 0
    outer loop
      vertex 0 0 0
      vertex 0 -5.5 6
      vertex 0 -5.5 0
    endloop
  endfacet
  facet normal -1 0 0
    outer loop
      vertex 0 16.5 0
      vertex 0 22 6
      vertex 0 22 0
    endloop
  endfacet
  facet normal -1 -0 0
    outer loop
      vertex 0 22 6
      vertex 0 16.5 0
      vertex 0 16.5 6
    endloop
  endfacet
  facet normal -0 0 1
    outer loop
      vertex -12 16.5 6
      vertex 0 11.15 6
      vertex 0 16.5 6
    endloop
  endfacet
  facet normal 0 0 1
    outer loop
      vertex 0 11.15 6
      vertex -12 16.5 6
      vertex -12 11.15 6
    endloop
  endfacet
  facet normal 0 0 1
    outer loop
      vertex 37.1441 13.64 6
      vertex 36.0441 13.64 6
      vertex 36.6801 11.4 6
    endloop
  endfacet
  facet normal 0 0 1
    outer loop
      vertex 39.7141 13.64 6
      vertex 37.7421 13.64 6
      vertex 39.2401 11.4 6
    endloop
  endfacet
  facet normal -0 0 1
    outer loop
      vertex 40.8621 16.2 6
      vertex 41.8561 14.216 6
      vertex 42.1331 16.2 6
    endloop
  endfacet
  facet normal 0 0 1
    outer loop
      vertex 41.8561 14.216 6
      vertex 40.8621 16.2 6
      vertex 40.4441 14.216 6
    endloop
  endfacet
  facet normal 0 0 1
    outer loop
      vertex 42.1331 16.2 6
      vertex 78 22 6
      vertex 42.1331 16.776 6
    endloop
  endfacet
  facet normal 0 0 1
    outer loop
      vertex 78 22 6
      vertex 41.4641 19.016 6
      vertex 42.1331 16.776 6
    endloop
  endfacet
  facet normal 0 0 1
    outer loop
      vertex 78 22 6
      vertex 40.8661 19.016 6
      vertex 41.4641 19.016 6
    endloop
  endfacet
  facet normal 0 0 1
    outer loop
      vertex 40.8661 19.016 6
      vertex 38.8931 19.016 6
      vertex 40.3821 16.776 6
    endloop
  endfacet
  facet normal 0 0 1
    outer loop
      vertex 78 22 6
      vertex 38.8931 19.016 6
      vertex 40.8661 19.016 6
    endloop
  endfacet
  facet normal 0 0 1
    outer loop
      vertex 78 22 6
      vertex 38.2951 19.016 6
      vertex 38.8931 19.016 6
    endloop
  endfacet
  facet normal 0 0 1
    outer loop
      vertex 38.2951 19.016 6
      vertex 36.3211 16.776 6
      vertex 37.8081 16.776 6
    endloop
  endfacet
  facet normal 0 0 1
    outer loop
      vertex 36.3211 16.776 6
      vertex 36.0441 14.216 6
      vertex 36.3211 16.2 6
    endloop
  endfacet
  facet normal 0 0 1
    outer loop
      vertex 36.3211 16.776 6
      vertex 0 16.5 6
      vertex 36.0441 14.216 6
    endloop
  endfacet
  facet normal 0 0 1
    outer loop
      vertex 0 16.5 6
      vertex 36.3211 16.776 6
      vertex 0 22 6
    endloop
  endfacet
  facet normal 0 0 1
    outer loop
      vertex 38.2951 19.016 6
      vertex 0 22 6
      vertex 36.3211 16.776 6
    endloop
  endfacet
  facet normal -0 0 1
    outer loop
      vertex 0 22 6
      vertex 38.2951 19.016 6
      vertex 78 22 6
    endloop
  endfacet
  facet normal 0 0 1
    outer loop
      vertex 41.8561 13.64 6
      vertex 78 22 6
      vertex 42.1331 16.2 6
    endloop
  endfacet
  facet normal 0 0 1
    outer loop
      vertex 41.8561 13.64 6
      vertex 42.1331 16.2 6
      vertex 41.8561 14.216 6
    endloop
  endfacet
  facet normal 0 0 1
    outer loop
      vertex 78 22 6
      vertex 41.8561 13.64 6
      vertex 78 0 6
    endloop
  endfacet
  facet normal 0 0 1
    outer loop
      vertex 39.8381 11.4 6
      vertex 41.8561 13.64 6
      vertex 40.3211 13.64 6
    endloop
  endfacet
  facet normal 0 0 1
    outer loop
      vertex 41.8561 13.64 6
      vertex 39.8381 11.4 6
      vertex 78 0 6
    endloop
  endfacet
  facet normal -0 0 1
    outer loop
      vertex 39.2401 11.4 6
      vertex 78 0 6
      vertex 39.8381 11.4 6
    endloop
  endfacet
  facet normal 0 0 1
    outer loop
      vertex 37.2781 11.4 6
      vertex 39.2401 11.4 6
      vertex 37.7421 13.64 6
    endloop
  endfacet
  facet normal 0 0 1
    outer loop
      vertex 0 0 6
      vertex 39.2401 11.4 6
      vertex 37.2781 11.4 6
    endloop
  endfacet
  facet normal 0 0 1
    outer loop
      vertex 0 0 6
      vertex 37.2781 11.4 6
      vertex 36.6801 11.4 6
    endloop
  endfacet
  facet normal 0 0 1
    outer loop
      vertex 36.0441 14.216 6
      vertex 0 16.5 6
      vertex 36.0441 13.64 6
    endloop
  endfacet
  facet normal 0 0 1
    outer loop
      vertex 0 11.15 6
      vertex 36.0441 13.64 6
      vertex 0 16.5 6
    endloop
  endfacet
  facet normal 0 0 1
    outer loop
      vertex 0 5.35 6
      vertex 36.0441 13.64 6
      vertex 0 11.15 6
    endloop
  endfacet
  facet normal 0 0 1
    outer loop
      vertex 36.0441 13.64 6
      vertex 0 5.35 6
      vertex 36.6801 11.4 6
    endloop
  endfacet
  facet normal 0 0 1
    outer loop
      vertex 0 0 6
      vertex 36.6801 11.4 6
      vertex 0 5.35 6
    endloop
  endfacet
  facet normal 0 0 1
    outer loop
      vertex 39.2401 11.4 6
      vertex 0 0 6
      vertex 78 0 6
    endloop
  endfacet
  facet normal -0 0 1
    outer loop
      vertex -12 5.35 6
      vertex 0 0 6
      vertex 0 5.35 6
    endloop
  endfacet
  facet normal 0 0 1
    outer loop
      vertex -12 -5.5 6
      vertex 0 0 6
      vertex -12 5.35 6
    endloop
  endfacet
  facet normal 0 0 1
    outer loop
      vertex 0 0 6
      vertex -12 -5.5 6
      vertex 0 -5.5 6
    endloop
  endfacet
  facet normal 0 0 1
    outer loop
      vertex 42.1331 16.776 6
      vertex 41.4641 19.016 6
      vertex 40.9801 16.776 6
    endloop
  endfacet
  facet normal 0 0 1
    outer loop
      vertex 40.3821 16.776 6
      vertex 38.8931 19.016 6
      vertex 38.4121 16.776 6
    endloop
  endfacet
  facet normal -0 0 1
    outer loop
      vertex 36.3211 16.2 6
      vertex 37.2731 14.216 6
      vertex 37.6861 16.2 6
    endloop
  endfacet
  facet normal 0 0 1
    outer loop
      vertex 37.2731 14.216 6
      vertex 36.3211 16.2 6
      vertex 36.0441 14.216 6
    endloop
  endfacet
  facet normal -0 0 1
    outer loop
      vertex 38.3011 16.2 6
      vertex 39.8411 14.216 6
      vertex 40.2591 16.2 6
    endloop
  endfacet
  facet normal 0 0 1
    outer loop
      vertex 39.8411 14.216 6
      vertex 38.3011 16.2 6
      vertex 37.8761 14.216 6
    endloop
  endfacet
  facet normal 1 0 0
    outer loop
      vertex 78 22 6
      vertex 78 17.1 3
      vertex 78 22 0
    endloop
  endfacet
  facet normal 1 0 0
    outer loop
      vertex 78 22 6
      vertex 78 16.9526 3.55
      vertex 78 17.1 3
    endloop
  endfacet
  facet normal 1 0 0
    outer loop
      vertex 78 22 6
      vertex 78 16.55 3.95263
      vertex 78 16.9526 3.55
    endloop
  endfacet
  facet normal 1 0 0
    outer loop
      vertex 78 22 6
      vertex 78 16 4.1
      vertex 78 16.55 3.95263
    endloop
  endfacet
  facet normal 1 0 0
    outer loop
      vertex 78 6 4.1
      vertex 78 16 4.1
      vertex 78 22 6
    endloop
  endfacet
  facet normal 1 0 0
    outer loop
      vertex 78 15.0474 3.55
      vertex 78 7.1 3
      vertex 78 14.9 3
    endloop
  endfacet
  facet normal 1 0 0
    outer loop
      vertex 78 6.95263 3.55
      vertex 78 15.0474 3.55
      vertex 78 15.45 3.95263
    endloop
  endfacet
  facet normal 1 0 0
    outer loop
      vertex 78 16 4.1
      vertex 78 6 4.1
      vertex 78 15.45 3.95263
    endloop
  endfacet
  facet normal 1 0 0
    outer loop
      vertex 78 15.0474 3.55
      vertex 78 6.95263 3.55
      vertex 78 7.1 3
    endloop
  endfacet
  facet normal 1 0 0
    outer loop
      vertex 78 15.45 3.95263
      vertex 78 6.55 3.95263
      vertex 78 6.95263 3.55
    endloop
  endfacet
  facet normal 1 0 0
    outer loop
      vertex 78 15.45 3.95263
      vertex 78 6 4.1
      vertex 78 6.55 3.95263
    endloop
  endfacet
  facet normal 1 0 0
    outer loop
      vertex 78 5.04737 3.55
      vertex 78 0 6
      vertex 78 4.9 3
    endloop
  endfacet
  facet normal 1 0 0
    outer loop
      vertex 78 5.45 3.95263
      vertex 78 0 6
      vertex 78 5.04737 3.55
    endloop
  endfacet
  facet normal 1 0 0
    outer loop
      vertex 78 6 4.1
      vertex 78 0 6
      vertex 78 5.45 3.95263
    endloop
  endfacet
  facet normal 1 -0 0
    outer loop
      vertex 78 0 6
      vertex 78 6 4.1
      vertex 78 22 6
    endloop
  endfacet
  facet normal 1 -0 0
    outer loop
      vertex 78 16.9526 2.45
      vertex 78 22 0
      vertex 78 17.1 3
    endloop
  endfacet
  facet normal 1 -0 0
    outer loop
      vertex 78 16.55 2.04737
      vertex 78 22 0
      vertex 78 16.9526 2.45
    endloop
  endfacet
  facet normal 1 -0 0
    outer loop
      vertex 78 16 1.9
      vertex 78 22 0
      vertex 78 16.55 2.04737
    endloop
  endfacet
  facet normal 1 0 0
    outer loop
      vertex 78 6 1.9
      vertex 78 16 1.9
      vertex 78 15.45 2.04737
    endloop
  endfacet
  facet normal 1 -0 0
    outer loop
      vertex 78 7.1 3
      vertex 78 15.0474 2.45
      vertex 78 14.9 3
    endloop
  endfacet
  facet normal 1 0 0
    outer loop
      vertex 78 6.95263 2.45
      vertex 78 15.0474 2.45
      vertex 78 7.1 3
    endloop
  endfacet
  facet normal 1 0 0
    outer loop
      vertex 78 15.0474 2.45
      vertex 78 6.95263 2.45
      vertex 78 15.45 2.04737
    endloop
  endfacet
  facet normal 1 0 0
    outer loop
      vertex 78 6.55 2.04737
      vertex 78 15.45 2.04737
      vertex 78 6.95263 2.45
    endloop
  endfacet
  facet normal 1 0 0
    outer loop
      vertex 78 6 1.9
      vertex 78 15.45 2.04737
      vertex 78 6.55 2.04737
    endloop
  endfacet
  facet normal 1 0 0
    outer loop
      vertex 78 16 1.9
      vertex 78 6 1.9
      vertex 78 22 0
    endloop
  endfacet
  facet normal 1 0 0
    outer loop
      vertex 78 0 0
      vertex 78 4.9 3
      vertex 78 0 6
    endloop
  endfacet
  facet normal 1 0 0
    outer loop
      vertex 78 4.9 3
      vertex 78 0 0
      vertex 78 5.04737 2.45
    endloop
  endfacet
  facet normal 1 0 0
    outer loop
      vertex 78 6 1.9
      vertex 78 0 0
      vertex 78 22 0
    endloop
  endfacet
  facet normal 1 0 0
    outer loop
      vertex 78 5.45 2.04737
      vertex 78 0 0
      vertex 78 6 1.9
    endloop
  endfacet
  facet normal 1 0 0
    outer loop
      vertex 78 5.04737 2.45
      vertex 78 0 0
      vertex 78 5.45 2.04737
    endloop
  endfacet
  facet normal 0 1 -0
    outer loop
      vertex 78 22 0
      vertex 0 22 6
      vertex 78 22 6
    endloop
  endfacet
  facet normal 0 1 0
    outer loop
      vertex 0 22 6
      vertex 78 22 0
      vertex 0 22 0
    endloop
  endfacet
  facet normal 0 0 -1
    outer loop
      vertex -12 11.15 0
      vertex 0 16.5 0
      vertex 0 11.15 0
    endloop
  endfacet
  facet normal -0 0 -1
    outer loop
      vertex 0 16.5 0
      vertex -12 11.15 0
      vertex -12 16.5 0
    endloop
  endfacet
  facet normal 0 0 -1
    outer loop
      vertex 0 5.35 0
      vertex 78 0 0
      vertex 0 0 0
    endloop
  endfacet
  facet normal 0 0 -1
    outer loop
      vertex 0 11.15 0
      vertex 78 0 0
      vertex 0 5.35 0
    endloop
  endfacet
  facet normal 0 0 -1
    outer loop
      vertex 78 0 0
      vertex 0 11.15 0
      vertex 78 22 0
    endloop
  endfacet
  facet normal 0 0 -1
    outer loop
      vertex 0 16.5 0
      vertex 78 22 0
      vertex 0 11.15 0
    endloop
  endfacet
  facet normal -0 0 -1
    outer loop
      vertex 78 22 0
      vertex 0 16.5 0
      vertex 0 22 0
    endloop
  endfacet
  facet normal 0 0 -1
    outer loop
      vertex -12 -5.5 0
      vertex 0 0 0
      vertex 0 -5.5 0
    endloop
  endfacet
  facet normal 0 0 -1
    outer loop
      vertex -12 5.35 0
      vertex 0 0 0
      vertex -12 -5.5 0
    endloop
  endfacet
  facet normal 0 0 -1
    outer loop
      vertex 0 0 0
      vertex -12 5.35 0
      vertex 0 5.35 0
    endloop
  endfacet
  facet normal 0 -1 0
    outer loop
      vertex 0 0 0
      vertex 78 0 6
      vertex 0 0 6
    endloop
  endfacet
  facet normal 0 -1 -0
    outer loop
      vertex 78 0 6
      vertex 0 0 0
      vertex 78 0 0
    endloop
  endfacet
  facet normal -1 0 0
    outer loop
      vertex -12 -5.5 0
      vertex -12 5.35 6
      vertex -12 5.35 0
    endloop
  endfacet
  facet normal -1 -0 0
    outer loop
      vertex -12 5.35 6
      vertex -12 -5.5 0
      vertex -12 -5.5 6
    endloop
  endfacet
  facet normal -1 0 0
    outer loop
      vertex -12 11.15 0
      vertex -12 16.5 6
      vertex -12 16.5 0
    endloop
  endfacet
  facet normal -1 -0 0
    outer loop
      vertex -12 16.5 6
      vertex -12 11.15 0
      vertex -12 11.15 6
    endloop
  endfacet
  facet normal 0 1 0
    outer loop
      vertex 0 16.5 6
      vertex -7 16.5 4.5
      vertex -12 16.5 6
    endloop
  endfacet
  facet normal 0 1 0
    outer loop
      vertex 0 16.5 6
      vertex -6.74183 16.5 4.46601
      vertex -7 16.5 4.5
    endloop
  endfacet
  facet normal 0 1 0
    outer loop
      vertex 0 16.5 6
      vertex -6.61177 16.5 4.44889
      vertex -6.74183 16.5 4.46601
    endloop
  endfacet
  facet normal 0 1 0
    outer loop
      vertex 0 16.5 6
      vertex -6.25 16.5 4.29904
      vertex -6.61177 16.5 4.44889
    endloop
  endfacet
  facet normal 0 1 0
    outer loop
      vertex 0 16.5 6
      vertex -5.93934 16.5 4.06066
      vertex -6.25 16.5 4.29904
    endloop
  endfacet
  facet normal 0 1 0
    outer loop
      vertex 0 16.5 6
      vertex -5.85948 16.5 3.95659
      vertex -5.93934 16.5 4.06066
    endloop
  endfacet
  facet normal 0 1 0
    outer loop
      vertex 0 16.5 6
      vertex -5.70096 16.5 3.75
      vertex -5.85948 16.5 3.95659
    endloop
  endfacet
  facet normal 0 1 0
    outer loop
      vertex 0 16.5 6
      vertex -5.60131 16.5 3.50942
      vertex -5.70096 16.5 3.75
    endloop
  endfacet
  facet normal 0 1 0
    outer loop
      vertex 0 16.5 6
      vertex -5.55111 16.5 3.38823
      vertex -5.60131 16.5 3.50942
    endloop
  endfacet
  facet normal 0 1 0
    outer loop
      vertex 0 16.5 6
      vertex -5.53399 16.5 3.25817
      vertex -5.55111 16.5 3.38823
    endloop
  endfacet
  facet normal 0 1 0
    outer loop
      vertex 0 16.5 6
      vertex -5.5 16.5 3
      vertex -5.53399 16.5 3.25817
    endloop
  endfacet
  facet normal 0 1 -0
    outer loop
      vertex 0 16.5 0
      vertex -5.5 16.5 3
      vertex 0 16.5 6
    endloop
  endfacet
  facet normal 0 1 0
    outer loop
      vertex -5.5 16.5 3
      vertex 0 16.5 0
      vertex -5.51712 16.5 2.86994
    endloop
  endfacet
  facet normal 0 1 0
    outer loop
      vertex -5.51712 16.5 2.86994
      vertex 0 16.5 0
      vertex -5.55111 16.5 2.61177
    endloop
  endfacet
  facet normal 0 1 0
    outer loop
      vertex -5.55111 16.5 2.61177
      vertex 0 16.5 0
      vertex -5.65076 16.5 2.37119
    endloop
  endfacet
  facet normal 0 1 0
    outer loop
      vertex -5.65076 16.5 2.37119
      vertex 0 16.5 0
      vertex -5.70096 16.5 2.25
    endloop
  endfacet
  facet normal 0 1 0
    outer loop
      vertex -5.70096 16.5 2.25
      vertex 0 16.5 0
      vertex -5.78082 16.5 2.14593
    endloop
  endfacet
  facet normal 0 1 0
    outer loop
      vertex -5.78082 16.5 2.14593
      vertex 0 16.5 0
      vertex -5.93934 16.5 1.93934
    endloop
  endfacet
  facet normal 0 1 0
    outer loop
      vertex -6.86994 16.5 1.51712
      vertex 0 16.5 0
      vertex -7 16.5 1.5
    endloop
  endfacet
  facet normal 0 1 0
    outer loop
      vertex -6.61177 16.5 1.55111
      vertex 0 16.5 0
      vertex -6.86994 16.5 1.51712
    endloop
  endfacet
  facet normal 0 1 0
    outer loop
      vertex -6.25 16.5 1.70096
      vertex 0 16.5 0
      vertex -6.61177 16.5 1.55111
    endloop
  endfacet
  facet normal 0 1 0
    outer loop
      vertex -5.93934 16.5 1.93934
      vertex 0 16.5 0
      vertex -6.25 16.5 1.70096
    endloop
  endfacet
  facet normal 0 1 -0
    outer loop
      vertex -7.25817 16.5 4.46601
      vertex -12 16.5 6
      vertex -7 16.5 4.5
    endloop
  endfacet
  facet normal 0 1 -0
    outer loop
      vertex -7.38823 16.5 4.44889
      vertex -12 16.5 6
      vertex -7.25817 16.5 4.46601
    endloop
  endfacet
  facet normal 0 1 -0
    outer loop
      vertex -7.75 16.5 4.29904
      vertex -12 16.5 6
      vertex -7.38823 16.5 4.44889
    endloop
  endfacet
  facet normal 0 1 -0
    outer loop
      vertex -8.06066 16.5 4.06066
      vertex -12 16.5 6
      vertex -7.75 16.5 4.29904
    endloop
  endfacet
  facet normal 0 1 -0
    outer loop
      vertex -8.14052 16.5 3.95659
      vertex -12 16.5 6
      vertex -8.06066 16.5 4.06066
    endloop
  endfacet
  facet normal 0 1 -0
    outer loop
      vertex -8.29904 16.5 3.75
      vertex -12 16.5 6
      vertex -8.14052 16.5 3.95659
    endloop
  endfacet
  facet normal 0 1 -0
    outer loop
      vertex -8.39869 16.5 3.50942
      vertex -12 16.5 6
      vertex -8.29904 16.5 3.75
    endloop
  endfacet
  facet normal 0 1 -0
    outer loop
      vertex -8.44889 16.5 3.38823
      vertex -12 16.5 6
      vertex -8.39869 16.5 3.50942
    endloop
  endfacet
  facet normal 0 1 -0
    outer loop
      vertex -8.46601 16.5 3.25817
      vertex -12 16.5 6
      vertex -8.44889 16.5 3.38823
    endloop
  endfacet
  facet normal 0 1 -0
    outer loop
      vertex -8.5 16.5 3
      vertex -12 16.5 6
      vertex -8.46601 16.5 3.25817
    endloop
  endfacet
  facet normal 0 1 0
    outer loop
      vertex -12 16.5 0
      vertex -8.5 16.5 3
      vertex -8.48288 16.5 2.86994
    endloop
  endfacet
  facet normal 0 1 0
    outer loop
      vertex -12 16.5 0
      vertex -8.48288 16.5 2.86994
      vertex -8.44889 16.5 2.61177
    endloop
  endfacet
  facet normal 0 1 0
    outer loop
      vertex -12 16.5 0
      vertex -8.44889 16.5 2.61177
      vertex -8.34924 16.5 2.37119
    endloop
  endfacet
  facet normal 0 1 0
    outer loop
      vertex -12 16.5 0
      vertex -8.34924 16.5 2.37119
      vertex -8.29904 16.5 2.25
    endloop
  endfacet
  facet normal 0 1 0
    outer loop
      vertex -12 16.5 0
      vertex -8.29904 16.5 2.25
      vertex -8.21918 16.5 2.14593
    endloop
  endfacet
  facet normal 0 1 0
    outer loop
      vertex -12 16.5 0
      vertex -8.21918 16.5 2.14593
      vertex -8.06066 16.5 1.93934
    endloop
  endfacet
  facet normal 0 1 0
    outer loop
      vertex -12 16.5 0
      vertex -7 16.5 1.5
      vertex 0 16.5 0
    endloop
  endfacet
  facet normal 0 1 0
    outer loop
      vertex -7 16.5 1.5
      vertex -12 16.5 0
      vertex -7.13006 16.5 1.51712
    endloop
  endfacet
  facet normal 0 1 0
    outer loop
      vertex -8.5 16.5 3
      vertex -12 16.5 0
      vertex -12 16.5 6
    endloop
  endfacet
  facet normal 0 1 0
    outer loop
      vertex -7.75 16.5 1.70096
      vertex -12 16.5 0
      vertex -8.06066 16.5 1.93934
    endloop
  endfacet
  facet normal 0 1 0
    outer loop
      vertex -7.38823 16.5 1.55111
      vertex -12 16.5 0
      vertex -7.75 16.5 1.70096
    endloop
  endfacet
  facet normal 0 1 0
    outer loop
      vertex -7.13006 16.5 1.51712
      vertex -12 16.5 0
      vertex -7.38823 16.5 1.55111
    endloop
  endfacet
  facet normal 0 -1 0
    outer loop
      vertex -12 -5.5 6
      vertex -7 -5.5 4.5
      vertex 0 -5.5 6
    endloop
  endfacet
  facet normal 0 -1 0
    outer loop
      vertex -12 -5.5 6
      vertex -7.17276 -5.5 4.47725
      vertex -7 -5.5 4.5
    endloop
  endfacet
  facet normal 0 -1 0
    outer loop
      vertex -12 -5.5 6
      vertex -7.38823 -5.5 4.44889
      vertex -7.17276 -5.5 4.47725
    endloop
  endfacet
  facet normal 0 -1 0
    outer loop
      vertex -12 -5.5 6
      vertex -7.75 -5.5 4.29904
      vertex -7.38823 -5.5 4.44889
    endloop
  endfacet
  facet normal 0 -1 0
    outer loop
      vertex -12 -5.5 6
      vertex -8.06066 -5.5 4.06066
      vertex -7.75 -5.5 4.29904
    endloop
  endfacet
  facet normal 0 -1 0
    outer loop
      vertex -12 -5.5 6
      vertex -8.19296 -5.5 3.88824
      vertex -8.06066 -5.5 4.06066
    endloop
  endfacet
  facet normal 0 -1 0
    outer loop
      vertex -12 -5.5 6
      vertex -8.29904 -5.5 3.75
      vertex -8.19296 -5.5 3.88824
    endloop
  endfacet
  facet normal 0 -1 0
    outer loop
      vertex -12 -5.5 6
      vertex -8.36572 -5.5 3.58901
      vertex -8.29904 -5.5 3.75
    endloop
  endfacet
  facet normal 0 -1 0
    outer loop
      vertex -12 -5.5 6
      vertex -8.44889 -5.5 3.38823
      vertex -8.36572 -5.5 3.58901
    endloop
  endfacet
  facet normal 0 -1 0
    outer loop
      vertex -12 -5.5 6
      vertex -8.47725 -5.5 3.17276
      vertex -8.44889 -5.5 3.38823
    endloop
  endfacet
  facet normal 0 -1 0
    outer loop
      vertex -12 -5.5 6
      vertex -8.5 -5.5 3
      vertex -8.47725 -5.5 3.17276
    endloop
  endfacet
  facet normal 0 -1 0
    outer loop
      vertex -12 -5.5 0
      vertex -8.5 -5.5 3
      vertex -12 -5.5 6
    endloop
  endfacet
  facet normal 0 -1 -0
    outer loop
      vertex -8.5 -5.5 3
      vertex -12 -5.5 0
      vertex -8.47163 -5.5 2.78453
    endloop
  endfacet
  facet normal 0 -1 -0
    outer loop
      vertex -8.47163 -5.5 2.78453
      vertex -12 -5.5 0
      vertex -8.44889 -5.5 2.61177
    endloop
  endfacet
  facet normal 0 -1 -0
    outer loop
      vertex -8.44889 -5.5 2.61177
      vertex -12 -5.5 0
      vertex -8.38221 -5.5 2.45078
    endloop
  endfacet
  facet normal 0 -1 -0
    outer loop
      vertex -8.38221 -5.5 2.45078
      vertex -12 -5.5 0
      vertex -8.29904 -5.5 2.25
    endloop
  endfacet
  facet normal 0 -1 -0
    outer loop
      vertex -8.29904 -5.5 2.25
      vertex -12 -5.5 0
      vertex -8.16674 -5.5 2.07758
    endloop
  endfacet
  facet normal 0 -1 -0
    outer loop
      vertex -7.21547 -5.5 1.52837
      vertex -12 -5.5 0
      vertex -7 -5.5 1.5
    endloop
  endfacet
  facet normal 0 -1 -0
    outer loop
      vertex -7.38823 -5.5 1.55111
      vertex -12 -5.5 0
      vertex -7.21547 -5.5 1.52837
    endloop
  endfacet
  facet normal 0 -1 -0
    outer loop
      vertex -7.75 -5.5 1.70096
      vertex -12 -5.5 0
      vertex -7.38823 -5.5 1.55111
    endloop
  endfacet
  facet normal 0 -1 -0
    outer loop
      vertex -8.06066 -5.5 1.93934
      vertex -12 -5.5 0
      vertex -7.75 -5.5 1.70096
    endloop
  endfacet
  facet normal 0 -1 -0
    outer loop
      vertex -8.16674 -5.5 2.07758
      vertex -12 -5.5 0
      vertex -8.06066 -5.5 1.93934
    endloop
  endfacet
  facet normal 0 -1 0
    outer loop
      vertex -6.82724 -5.5 4.47725
      vertex 0 -5.5 6
      vertex -7 -5.5 4.5
    endloop
  endfacet
  facet normal 0 -1 0
    outer loop
      vertex -6.61177 -5.5 4.44889
      vertex 0 -5.5 6
      vertex -6.82724 -5.5 4.47725
    endloop
  endfacet
  facet normal 0 -1 0
    outer loop
      vertex -6.25 -5.5 4.29904
      vertex 0 -5.5 6
      vertex -6.61177 -5.5 4.44889
    endloop
  endfacet
  facet normal 0 -1 0
    outer loop
      vertex -5.93934 -5.5 4.06066
      vertex 0 -5.5 6
      vertex -6.25 -5.5 4.29904
    endloop
  endfacet
  facet normal 0 -1 0
    outer loop
      vertex -5.80704 -5.5 3.88824
      vertex 0 -5.5 6
      vertex -5.93934 -5.5 4.06066
    endloop
  endfacet
  facet normal 0 -1 0
    outer loop
      vertex -5.70096 -5.5 3.75
      vertex 0 -5.5 6
      vertex -5.80704 -5.5 3.88824
    endloop
  endfacet
  facet normal 0 -1 0
    outer loop
      vertex -5.63428 -5.5 3.58901
      vertex 0 -5.5 6
      vertex -5.70096 -5.5 3.75
    endloop
  endfacet
  facet normal 0 -1 0
    outer loop
      vertex -5.55111 -5.5 3.38823
      vertex 0 -5.5 6
      vertex -5.63428 -5.5 3.58901
    endloop
  endfacet
  facet normal 0 -1 0
    outer loop
      vertex -5.52274 -5.5 3.17276
      vertex 0 -5.5 6
      vertex -5.55111 -5.5 3.38823
    endloop
  endfacet
  facet normal 0 -1 0
    outer loop
      vertex -5.5 -5.5 3
      vertex 0 -5.5 6
      vertex -5.52274 -5.5 3.17276
    endloop
  endfacet
  facet normal 0 -1 0
    outer loop
      vertex 0 -5.5 0
      vertex -5.5 -5.5 3
      vertex -5.52837 -5.5 2.78453
    endloop
  endfacet
  facet normal 0 -1 0
    outer loop
      vertex 0 -5.5 0
      vertex -5.52837 -5.5 2.78453
      vertex -5.55111 -5.5 2.61177
    endloop
  endfacet
  facet normal 0 -1 0
    outer loop
      vertex 0 -5.5 0
      vertex -5.55111 -5.5 2.61177
      vertex -5.61779 -5.5 2.45078
    endloop
  endfacet
  facet normal 0 -1 0
    outer loop
      vertex 0 -5.5 0
      vertex -5.61779 -5.5 2.45078
      vertex -5.70096 -5.5 2.25
    endloop
  endfacet
  facet normal 0 -1 0
    outer loop
      vertex 0 -5.5 0
      vertex -5.70096 -5.5 2.25
      vertex -5.83326 -5.5 2.07758
    endloop
  endfacet
  facet normal 0 -1 0
    outer loop
      vertex 0 -5.5 0
      vertex -5.83326 -5.5 2.07758
      vertex -5.93934 -5.5 1.93934
    endloop
  endfacet
  facet normal 0 -1 0
    outer loop
      vertex 0 -5.5 0
      vertex -5.93934 -5.5 1.93934
      vertex -6.25 -5.5 1.70096
    endloop
  endfacet
  facet normal 0 -1 0
    outer loop
      vertex 0 -5.5 0
      vertex -7 -5.5 1.5
      vertex -12 -5.5 0
    endloop
  endfacet
  facet normal 0 -1 0
    outer loop
      vertex -7 -5.5 1.5
      vertex 0 -5.5 0
      vertex -6.78453 -5.5 1.52837
    endloop
  endfacet
  facet normal 0 -1 0
    outer loop
      vertex -5.5 -5.5 3
      vertex 0 -5.5 0
      vertex 0 -5.5 6
    endloop
  endfacet
  facet normal 0 -1 0
    outer loop
      vertex -6.61177 -5.5 1.55111
      vertex 0 -5.5 0
      vertex -6.25 -5.5 1.70096
    endloop
  endfacet
  facet normal 0 -1 0
    outer loop
      vertex -6.78453 -5.5 1.52837
      vertex 0 -5.5 0
      vertex -6.61177 -5.5 1.55111
    endloop
  endfacet
  facet normal -1 0 0
    outer loop
      vertex 0 5.35 0
      vertex 0 11.15 6
      vertex 0 11.15 0
    endloop
  endfacet
  facet normal -1 -0 0
    outer loop
      vertex 0 11.15 6
      vertex 0 5.35 0
      vertex 0 5.35 6
    endloop
  endfacet
  facet normal 0 -1 0
    outer loop
      vertex -12 11.15 6
      vertex -7 11.15 4.5
      vertex 0 11.15 6
    endloop
  endfacet
  facet normal 0 -1 0
    outer loop
      vertex -12 11.15 6
      vertex -7.2374 11.15 4.46874
      vertex -7 11.15 4.5
    endloop
  endfacet
  facet normal 0 -1 0
    outer loop
      vertex -12 11.15 6
      vertex -7.38823 11.15 4.44889
      vertex -7.2374 11.15 4.46874
    endloop
  endfacet
  facet normal 0 -1 0
    outer loop
      vertex -12 11.15 6
      vertex -7.75 11.15 4.29904
      vertex -7.38823 11.15 4.44889
    endloop
  endfacet
  facet normal 0 -1 0
    outer loop
      vertex -12 11.15 6
      vertex -8.06066 11.15 4.06066
      vertex -7.75 11.15 4.29904
    endloop
  endfacet
  facet normal 0 -1 0
    outer loop
      vertex -12 11.15 6
      vertex -8.15327 11.15 3.93997
      vertex -8.06066 11.15 4.06066
    endloop
  endfacet
  facet normal 0 -1 0
    outer loop
      vertex -12 11.15 6
      vertex -8.29904 11.15 3.75
      vertex -8.15327 11.15 3.93997
    endloop
  endfacet
  facet normal 0 -1 0
    outer loop
      vertex -12 11.15 6
      vertex -8.39067 11.15 3.52878
      vertex -8.29904 11.15 3.75
    endloop
  endfacet
  facet normal 0 -1 0
    outer loop
      vertex -12 11.15 6
      vertex -8.44889 11.15 3.38823
      vertex -8.39067 11.15 3.52878
    endloop
  endfacet
  facet normal 0 -1 0
    outer loop
      vertex -12 11.15 6
      vertex -8.46875 11.15 3.2374
      vertex -8.44889 11.15 3.38823
    endloop
  endfacet
  facet normal 0 -1 0
    outer loop
      vertex -12 11.15 6
      vertex -8.5 11.15 3
      vertex -8.46875 11.15 3.2374
    endloop
  endfacet
  facet normal 0 -1 0
    outer loop
      vertex -12 11.15 0
      vertex -8.5 11.15 3
      vertex -12 11.15 6
    endloop
  endfacet
  facet normal 0 -1 -0
    outer loop
      vertex -8.5 11.15 3
      vertex -12 11.15 0
      vertex -8.48014 11.15 2.84917
    endloop
  endfacet
  facet normal 0 -1 -0
    outer loop
      vertex -8.48014 11.15 2.84917
      vertex -12 11.15 0
      vertex -8.44889 11.15 2.61177
    endloop
  endfacet
  facet normal 0 -1 -0
    outer loop
      vertex -8.44889 11.15 2.61177
      vertex -12 11.15 0
      vertex -8.35725 11.15 2.39055
    endloop
  endfacet
  facet normal 0 -1 -0
    outer loop
      vertex -8.35725 11.15 2.39055
      vertex -12 11.15 0
      vertex -8.29904 11.15 2.25
    endloop
  endfacet
  facet normal 0 -1 -0
    outer loop
      vertex -8.29904 11.15 2.25
      vertex -12 11.15 0
      vertex -8.20643 11.15 2.12931
    endloop
  endfacet
  facet normal 0 -1 -0
    outer loop
      vertex -7.15083 11.15 1.51986
      vertex -12 11.15 0
      vertex -7 11.15 1.5
    endloop
  endfacet
  facet normal 0 -1 -0
    outer loop
      vertex -7.38823 11.15 1.55111
      vertex -12 11.15 0
      vertex -7.15083 11.15 1.51986
    endloop
  endfacet
  facet normal 0 -1 -0
    outer loop
      vertex -7.75 11.15 1.70096
      vertex -12 11.15 0
      vertex -7.38823 11.15 1.55111
    endloop
  endfacet
  facet normal 0 -1 -0
    outer loop
      vertex -8.06066 11.15 1.93934
      vertex -12 11.15 0
      vertex -7.75 11.15 1.70096
    endloop
  endfacet
  facet normal 0 -1 -0
    outer loop
      vertex -8.20643 11.15 2.12931
      vertex -12 11.15 0
      vertex -8.06066 11.15 1.93934
    endloop
  endfacet
  facet normal 0 -1 0
    outer loop
      vertex -6.7626 11.15 4.46874
      vertex 0 11.15 6
      vertex -7 11.15 4.5
    endloop
  endfacet
  facet normal 0 -1 0
    outer loop
      vertex -6.61177 11.15 4.44889
      vertex 0 11.15 6
      vertex -6.7626 11.15 4.46874
    endloop
  endfacet
  facet normal 0 -1 0
    outer loop
      vertex -6.25 11.15 4.29904
      vertex 0 11.15 6
      vertex -6.61177 11.15 4.44889
    endloop
  endfacet
  facet normal 0 -1 0
    outer loop
      vertex -5.93934 11.15 4.06066
      vertex 0 11.15 6
      vertex -6.25 11.15 4.29904
    endloop
  endfacet
  facet normal 0 -1 0
    outer loop
      vertex -5.84673 11.15 3.93997
      vertex 0 11.15 6
      vertex -5.93934 11.15 4.06066
    endloop
  endfacet
  facet normal 0 -1 0
    outer loop
      vertex -5.70096 11.15 3.75
      vertex 0 11.15 6
      vertex -5.84673 11.15 3.93997
    endloop
  endfacet
  facet normal 0 -1 0
    outer loop
      vertex -5.60933 11.15 3.52878
      vertex 0 11.15 6
      vertex -5.70096 11.15 3.75
    endloop
  endfacet
  facet normal 0 -1 0
    outer loop
      vertex -5.55111 11.15 3.38823
      vertex 0 11.15 6
      vertex -5.60933 11.15 3.52878
    endloop
  endfacet
  facet normal 0 -1 0
    outer loop
      vertex -5.53125 11.15 3.2374
      vertex 0 11.15 6
      vertex -5.55111 11.15 3.38823
    endloop
  endfacet
  facet normal 0 -1 0
    outer loop
      vertex -5.5 11.15 3
      vertex 0 11.15 6
      vertex -5.53125 11.15 3.2374
    endloop
  endfacet
  facet normal 0 -1 0
    outer loop
      vertex 0 11.15 0
      vertex -5.5 11.15 3
      vertex -5.51986 11.15 2.84917
    endloop
  endfacet
  facet normal 0 -1 0
    outer loop
      vertex 0 11.15 0
      vertex -5.51986 11.15 2.84917
      vertex -5.55111 11.15 2.61177
    endloop
  endfacet
  facet normal 0 -1 0
    outer loop
      vertex 0 11.15 0
      vertex -5.55111 11.15 2.61177
      vertex -5.64274 11.15 2.39055
    endloop
  endfacet
  facet normal 0 -1 0
    outer loop
      vertex 0 11.15 0
      vertex -5.64274 11.15 2.39055
      vertex -5.70096 11.15 2.25
    endloop
  endfacet
  facet normal 0 -1 0
    outer loop
      vertex 0 11.15 0
      vertex -5.70096 11.15 2.25
      vertex -5.79357 11.15 2.12931
    endloop
  endfacet
  facet normal 0 -1 0
    outer loop
      vertex 0 11.15 0
      vertex -5.79357 11.15 2.12931
      vertex -5.93934 11.15 1.93934
    endloop
  endfacet
  facet normal 0 -1 0
    outer loop
      vertex 0 11.15 0
      vertex -5.93934 11.15 1.93934
      vertex -6.25 11.15 1.70096
    endloop
  endfacet
  facet normal 0 -1 0
    outer loop
      vertex 0 11.15 0
      vertex -7 11.15 1.5
      vertex -12 11.15 0
    endloop
  endfacet
  facet normal 0 -1 0
    outer loop
      vertex -7 11.15 1.5
      vertex 0 11.15 0
      vertex -6.84917 11.15 1.51986
    endloop
  endfacet
  facet normal 0 -1 0
    outer loop
      vertex -5.5 11.15 3
      vertex 0 11.15 0
      vertex 0 11.15 6
    endloop
  endfacet
  facet normal 0 -1 0
    outer loop
      vertex -6.61177 11.15 1.55111
      vertex 0 11.15 0
      vertex -6.25 11.15 1.70096
    endloop
  endfacet
  facet normal 0 -1 0
    outer loop
      vertex -6.84917 11.15 1.51986
      vertex 0 11.15 0
      vertex -6.61177 11.15 1.55111
    endloop
  endfacet
  facet normal 0 1 0
    outer loop
      vertex 0 5.35 6
      vertex -7 5.35 4.5
      vertex -12 5.35 6
    endloop
  endfacet
  facet normal 0 1 0
    outer loop
      vertex 0 5.35 6
      vertex -6.78512 5.35 4.47171
      vertex -7 5.35 4.5
    endloop
  endfacet
  facet normal 0 1 0
    outer loop
      vertex 0 5.35 6
      vertex -6.61177 5.35 4.44889
      vertex -6.78512 5.35 4.47171
    endloop
  endfacet
  facet normal 0 1 0
    outer loop
      vertex 0 5.35 6
      vertex -6.25 5.35 4.29904
      vertex -6.61177 5.35 4.44889
    endloop
  endfacet
  facet normal 0 1 0
    outer loop
      vertex 0 5.35 6
      vertex -5.93934 5.35 4.06066
      vertex -6.25 5.35 4.29904
    endloop
  endfacet
  facet normal 0 1 0
    outer loop
      vertex 0 5.35 6
      vertex -5.8329 5.35 3.92195
      vertex -5.93934 5.35 4.06066
    endloop
  endfacet
  facet normal 0 1 0
    outer loop
      vertex 0 5.35 6
      vertex -5.70096 5.35 3.75
      vertex -5.8329 5.35 3.92195
    endloop
  endfacet
  facet normal 0 1 0
    outer loop
      vertex 0 5.35 6
      vertex -5.61802 5.35 3.54976
      vertex -5.70096 5.35 3.75
    endloop
  endfacet
  facet normal 0 1 0
    outer loop
      vertex 0 5.35 6
      vertex -5.55111 5.35 3.38823
      vertex -5.61802 5.35 3.54976
    endloop
  endfacet
  facet normal 0 1 0
    outer loop
      vertex 0 5.35 6
      vertex -5.52829 5.35 3.21488
      vertex -5.55111 5.35 3.38823
    endloop
  endfacet
  facet normal 0 1 0
    outer loop
      vertex 0 5.35 6
      vertex -5.5 5.35 3
      vertex -5.52829 5.35 3.21488
    endloop
  endfacet
  facet normal 0 1 -0
    outer loop
      vertex 0 5.35 0
      vertex -5.5 5.35 3
      vertex 0 5.35 6
    endloop
  endfacet
  facet normal 0 1 0
    outer loop
      vertex -5.5 5.35 3
      vertex 0 5.35 0
      vertex -5.52282 5.35 2.82666
    endloop
  endfacet
  facet normal 0 1 0
    outer loop
      vertex -5.52282 5.35 2.82666
      vertex 0 5.35 0
      vertex -5.55111 5.35 2.61177
    endloop
  endfacet
  facet normal 0 1 0
    outer loop
      vertex -5.55111 5.35 2.61177
      vertex 0 5.35 0
      vertex -5.63405 5.35 2.41153
    endloop
  endfacet
  facet normal 0 1 0
    outer loop
      vertex -5.63405 5.35 2.41153
      vertex 0 5.35 0
      vertex -5.70096 5.35 2.25
    endloop
  endfacet
  facet normal 0 1 0
    outer loop
      vertex -5.70096 5.35 2.25
      vertex 0 5.35 0
      vertex -5.8074 5.35 2.11129
    endloop
  endfacet
  facet normal 0 1 0
    outer loop
      vertex -5.8074 5.35 2.11129
      vertex 0 5.35 0
      vertex -5.93934 5.35 1.93934
    endloop
  endfacet
  facet normal 0 1 0
    outer loop
      vertex -6.82666 5.35 1.52282
      vertex 0 5.35 0
      vertex -7 5.35 1.5
    endloop
  endfacet
  facet normal 0 1 0
    outer loop
      vertex -6.61177 5.35 1.55111
      vertex 0 5.35 0
      vertex -6.82666 5.35 1.52282
    endloop
  endfacet
  facet normal 0 1 0
    outer loop
      vertex -6.25 5.35 1.70096
      vertex 0 5.35 0
      vertex -6.61177 5.35 1.55111
    endloop
  endfacet
  facet normal 0 1 0
    outer loop
      vertex -5.93934 5.35 1.93934
      vertex 0 5.35 0
      vertex -6.25 5.35 1.70096
    endloop
  endfacet
  facet normal 0 1 -0
    outer loop
      vertex -7.21488 5.35 4.47171
      vertex -12 5.35 6
      vertex -7 5.35 4.5
    endloop
  endfacet
  facet normal 0 1 -0
    outer loop
      vertex -7.38823 5.35 4.44889
      vertex -12 5.35 6
      vertex -7.21488 5.35 4.47171
    endloop
  endfacet
  facet normal 0 1 -0
    outer loop
      vertex -7.75 5.35 4.29904
      vertex -12 5.35 6
      vertex -7.38823 5.35 4.44889
    endloop
  endfacet
  facet normal 0 1 -0
    outer loop
      vertex -8.06066 5.35 4.06066
      vertex -12 5.35 6
      vertex -7.75 5.35 4.29904
    endloop
  endfacet
  facet normal 0 1 -0
    outer loop
      vertex -8.1671 5.35 3.92195
      vertex -12 5.35 6
      vertex -8.06066 5.35 4.06066
    endloop
  endfacet
  facet normal 0 1 -0
    outer loop
      vertex -8.29904 5.35 3.75
      vertex -12 5.35 6
      vertex -8.1671 5.35 3.92195
    endloop
  endfacet
  facet normal 0 1 -0
    outer loop
      vertex -8.38198 5.35 3.54976
      vertex -12 5.35 6
      vertex -8.29904 5.35 3.75
    endloop
  endfacet
  facet normal 0 1 -0
    outer loop
      vertex -8.44889 5.35 3.38823
      vertex -12 5.35 6
      vertex -8.38198 5.35 3.54976
    endloop
  endfacet
  facet normal 0 1 -0
    outer loop
      vertex -8.47171 5.35 3.21488
      vertex -12 5.35 6
      vertex -8.44889 5.35 3.38823
    endloop
  endfacet
  facet normal 0 1 -0
    outer loop
      vertex -8.5 5.35 3
      vertex -12 5.35 6
      vertex -8.47171 5.35 3.21488
    endloop
  endfacet
  facet normal 0 1 0
    outer loop
      vertex -12 5.35 0
      vertex -8.5 5.35 3
      vertex -8.47718 5.35 2.82666
    endloop
  endfacet
  facet normal 0 1 0
    outer loop
      vertex -12 5.35 0
      vertex -8.47718 5.35 2.82666
      vertex -8.44889 5.35 2.61177
    endloop
  endfacet
  facet normal 0 1 0
    outer loop
      vertex -12 5.35 0
      vertex -8.44889 5.35 2.61177
      vertex -8.36595 5.35 2.41153
    endloop
  endfacet
  facet normal 0 1 0
    outer loop
      vertex -12 5.35 0
      vertex -8.36595 5.35 2.41153
      vertex -8.29904 5.35 2.25
    endloop
  endfacet
  facet normal 0 1 0
    outer loop
      vertex -12 5.35 0
      vertex -8.29904 5.35 2.25
      vertex -8.1926 5.35 2.11129
    endloop
  endfacet
  facet normal 0 1 0
    outer loop
      vertex -12 5.35 0
      vertex -8.1926 5.35 2.11129
      vertex -8.06066 5.35 1.93934
    endloop
  endfacet
  facet normal 0 1 0
    outer loop
      vertex -12 5.35 0
      vertex -7 5.35 1.5
      vertex 0 5.35 0
    endloop
  endfacet
  facet normal 0 1 0
    outer loop
      vertex -7 5.35 1.5
      vertex -12 5.35 0
      vertex -7.17334 5.35 1.52282
    endloop
  endfacet
  facet normal 0 1 0
    outer loop
      vertex -8.5 5.35 3
      vertex -12 5.35 0
      vertex -12 5.35 6
    endloop
  endfacet
  facet normal 0 1 0
    outer loop
      vertex -7.75 5.35 1.70096
      vertex -12 5.35 0
      vertex -8.06066 5.35 1.93934
    endloop
  endfacet
  facet normal 0 1 0
    outer loop
      vertex -7.38823 5.35 1.55111
      vertex -12 5.35 0
      vertex -7.75 5.35 1.70096
    endloop
  endfacet
  facet normal 0 1 0
    outer loop
      vertex -7.17334 5.35 1.52282
      vertex -12 5.35 0
      vertex -7.38823 5.35 1.55111
    endloop
  endfacet
  facet normal -0.991445 -8.16395e-09 -0.130525
    outer loop
      vertex -5.52274 -5.5 3.17276
      vertex -5.55111 5.35 3.38823
      vertex -5.52829 5.35 3.21488
    endloop
  endfacet
  facet normal -0.991445 -0 -0.130525
    outer loop
      vertex -5.55111 5.35 3.38823
      vertex -5.52274 -5.5 3.17276
      vertex -5.55111 -5.5 3.38823
    endloop
  endfacet
  facet normal -0.991445 -4.27604e-08 -0.130526
    outer loop
      vertex -5.53125 11.15 3.2374
      vertex -5.55111 16.5 3.38823
      vertex -5.53399 16.5 3.25817
    endloop
  endfacet
  facet normal -0.991445 -0 -0.130528
    outer loop
      vertex -5.55111 16.5 3.38823
      vertex -5.53125 11.15 3.2374
      vertex -5.55111 11.15 3.38823
    endloop
  endfacet
  facet normal -0.991445 0 -0.130527
    outer loop
      vertex -5.5 -5.5 3
      vertex -5.52829 5.35 3.21488
      vertex -5.5 5.35 3
    endloop
  endfacet
  facet normal -0.991445 -1.63473e-09 -0.130527
    outer loop
      vertex -5.52829 5.35 3.21488
      vertex -5.5 -5.5 3
      vertex -5.52274 -5.5 3.17276
    endloop
  endfacet
  facet normal -0.991445 -5.81678e-09 -0.130526
    outer loop
      vertex -5.5 11.15 3
      vertex -5.53399 16.5 3.25817
      vertex -5.5 16.5 3
    endloop
  endfacet
  facet normal -0.991445 -4.73428e-08 -0.130525
    outer loop
      vertex -5.53399 16.5 3.25817
      vertex -5.5 11.15 3
      vertex -5.53125 11.15 3.2374
    endloop
  endfacet
  facet normal 0.991445 0 -0.130528
    outer loop
      vertex -8.44889 -5.5 3.38823
      vertex -8.47171 5.35 3.21488
      vertex -8.44889 5.35 3.38823
    endloop
  endfacet
  facet normal 0.991445 1.95024e-09 -0.130528
    outer loop
      vertex -8.47171 5.35 3.21488
      vertex -8.44889 -5.5 3.38823
      vertex -8.47725 -5.5 3.17276
    endloop
  endfacet
  facet normal 0.991445 0 -0.130526
    outer loop
      vertex -8.44889 11.15 3.38823
      vertex -8.46601 16.5 3.25817
      vertex -8.44889 16.5 3.38823
    endloop
  endfacet
  facet normal 0.991444 -1.13069e-07 -0.130531
    outer loop
      vertex -8.46601 16.5 3.25817
      vertex -8.44889 11.15 3.38823
      vertex -8.46875 11.15 3.2374
    endloop
  endfacet
  facet normal -0.92388 -6.57076e-09 -0.382683
    outer loop
      vertex -5.63428 -5.5 3.58901
      vertex -5.70096 5.35 3.75
      vertex -5.61802 5.35 3.54976
    endloop
  endfacet
  facet normal -0.92388 -0 -0.382683
    outer loop
      vertex -5.70096 5.35 3.75
      vertex -5.63428 -5.5 3.58901
      vertex -5.70096 -5.5 3.75
    endloop
  endfacet
  facet normal -0.92388 6.76954e-09 -0.382683
    outer loop
      vertex -5.60933 11.15 3.52878
      vertex -5.70096 16.5 3.75
      vertex -5.60131 16.5 3.50942
    endloop
  endfacet
  facet normal -0.92388 -1.7054e-08 -0.382683
    outer loop
      vertex -5.70096 16.5 3.75
      vertex -5.60933 11.15 3.52878
      vertex -5.70096 11.15 3.75
    endloop
  endfacet
  facet normal 0.130526 0 0.991445
    outer loop
      vertex -7.13006 16.5 1.51712
      vertex -7 11.15 1.5
      vertex -7 16.5 1.5
    endloop
  endfacet
  facet normal 0.130526 -1.20592e-08 0.991445
    outer loop
      vertex -7 11.15 1.5
      vertex -7.13006 16.5 1.51712
      vertex -7.15083 11.15 1.51986
    endloop
  endfacet
  facet normal 0.130526 0 0.991445
    outer loop
      vertex -7.17334 5.35 1.52282
      vertex -7 -5.5 1.5
      vertex -7 5.35 1.5
    endloop
  endfacet
  facet normal 0.130526 1.37626e-08 0.991445
    outer loop
      vertex -7 -5.5 1.5
      vertex -7.17334 5.35 1.52282
      vertex -7.21547 -5.5 1.52837
    endloop
  endfacet
  facet normal -0.130527 4.82452e-08 -0.991445
    outer loop
      vertex -7 11.15 4.5
      vertex -6.74183 16.5 4.46601
      vertex -6.7626 11.15 4.46874
    endloop
  endfacet
  facet normal -0.130526 0 -0.991445
    outer loop
      vertex -6.74183 16.5 4.46601
      vertex -7 11.15 4.5
      vertex -7 16.5 4.5
    endloop
  endfacet
  facet normal -0.130527 -9.35403e-10 -0.991445
    outer loop
      vertex -7 -5.5 4.5
      vertex -6.78512 5.35 4.47171
      vertex -6.82724 -5.5 4.47725
    endloop
  endfacet
  facet normal -0.130527 0 -0.991445
    outer loop
      vertex -6.78512 5.35 4.47171
      vertex -7 -5.5 4.5
      vertex -7 5.35 4.5
    endloop
  endfacet
  facet normal -0.793352 0 -0.608763
    outer loop
      vertex -5.70096 -5.5 3.75
      vertex -5.8329 5.35 3.92195
      vertex -5.70096 5.35 3.75
    endloop
  endfacet
  facet normal -0.793352 -1.3956e-08 -0.608763
    outer loop
      vertex -5.8329 5.35 3.92195
      vertex -5.70096 -5.5 3.75
      vertex -5.80704 -5.5 3.88824
    endloop
  endfacet
  facet normal -0.793353 -2.7129e-08 -0.608762
    outer loop
      vertex -5.70096 11.15 3.75
      vertex -5.85948 16.5 3.95659
      vertex -5.70096 16.5 3.75
    endloop
  endfacet
  facet normal -0.793352 4.80479e-08 -0.608763
    outer loop
      vertex -5.85948 16.5 3.95659
      vertex -5.70096 11.15 3.75
      vertex -5.84673 11.15 3.93997
    endloop
  endfacet
  facet normal -0.92388 0 -0.382681
    outer loop
      vertex -5.55111 -5.5 3.38823
      vertex -5.61802 5.35 3.54976
      vertex -5.55111 5.35 3.38823
    endloop
  endfacet
  facet normal -0.92388 -3.13677e-10 -0.382681
    outer loop
      vertex -5.61802 5.35 3.54976
      vertex -5.55111 -5.5 3.38823
      vertex -5.63428 -5.5 3.58901
    endloop
  endfacet
  facet normal -0.923881 0 -0.382681
    outer loop
      vertex -5.55111 11.15 3.38823
      vertex -5.60131 16.5 3.50942
      vertex -5.55111 16.5 3.38823
    endloop
  endfacet
  facet normal -0.92388 1.56594e-08 -0.382681
    outer loop
      vertex -5.60131 16.5 3.50942
      vertex -5.55111 11.15 3.38823
      vertex -5.60933 11.15 3.52878
    endloop
  endfacet
  facet normal -0.991445 9.55789e-09 0.130525
    outer loop
      vertex -5.52837 -5.5 2.78453
      vertex -5.5 5.35 3
      vertex -5.52282 5.35 2.82666
    endloop
  endfacet
  facet normal -0.991445 0 0.130525
    outer loop
      vertex -5.5 5.35 3
      vertex -5.52837 -5.5 2.78453
      vertex -5.5 -5.5 3
    endloop
  endfacet
  facet normal -0.991445 4.36894e-08 0.130526
    outer loop
      vertex -5.51986 11.15 2.84917
      vertex -5.5 16.5 3
      vertex -5.51712 16.5 2.86994
    endloop
  endfacet
  facet normal -0.991445 5.81684e-09 0.130527
    outer loop
      vertex -5.5 16.5 3
      vertex -5.51986 11.15 2.84917
      vertex -5.5 11.15 3
    endloop
  endfacet
  facet normal 0.793352 -4.60866e-08 -0.608763
    outer loop
      vertex -8.19296 -5.5 3.88824
      vertex -8.29904 5.35 3.75
      vertex -8.1671 5.35 3.92195
    endloop
  endfacet
  facet normal 0.793354 0 -0.608761
    outer loop
      vertex -8.29904 5.35 3.75
      vertex -8.19296 -5.5 3.88824
      vertex -8.29904 -5.5 3.75
    endloop
  endfacet
  facet normal 0.793353 -2.87105e-08 -0.608762
    outer loop
      vertex -8.15327 11.15 3.93997
      vertex -8.29904 16.5 3.75
      vertex -8.14052 16.5 3.95659
    endloop
  endfacet
  facet normal 0.793353 -2.7129e-08 -0.608762
    outer loop
      vertex -8.29904 16.5 3.75
      vertex -8.15327 11.15 3.93997
      vertex -8.29904 11.15 3.75
    endloop
  endfacet
  facet normal 0.382682 0 -0.92388
    outer loop
      vertex -7.75 11.15 4.29904
      vertex -7.38823 16.5 4.44889
      vertex -7.38823 11.15 4.44889
    endloop
  endfacet
  facet normal 0.382682 0 -0.92388
    outer loop
      vertex -7.38823 16.5 4.44889
      vertex -7.75 11.15 4.29904
      vertex -7.75 16.5 4.29904
    endloop
  endfacet
  facet normal 0.382682 0 -0.92388
    outer loop
      vertex -7.75 -5.5 4.29904
      vertex -7.38823 5.35 4.44889
      vertex -7.38823 -5.5 4.44889
    endloop
  endfacet
  facet normal 0.382682 0 -0.92388
    outer loop
      vertex -7.38823 5.35 4.44889
      vertex -7.75 -5.5 4.29904
      vertex -7.75 5.35 4.29904
    endloop
  endfacet
  facet normal 0.608763 0 0.793352
    outer loop
      vertex -8.06066 5.35 1.93934
      vertex -7.75 -5.5 1.70096
      vertex -7.75 5.35 1.70096
    endloop
  endfacet
  facet normal 0.608763 0 0.793352
    outer loop
      vertex -7.75 -5.5 1.70096
      vertex -8.06066 5.35 1.93934
      vertex -8.06066 -5.5 1.93934
    endloop
  endfacet
  facet normal 0.608763 0 0.793352
    outer loop
      vertex -8.06066 16.5 1.93934
      vertex -7.75 11.15 1.70096
      vertex -7.75 16.5 1.70096
    endloop
  endfacet
  facet normal 0.608763 0 0.793352
    outer loop
      vertex -7.75 11.15 1.70096
      vertex -8.06066 16.5 1.93934
      vertex -8.06066 11.15 1.93934
    endloop
  endfacet
  facet normal 0.793351 4.08421e-08 0.608764
    outer loop
      vertex -8.16674 -5.5 2.07758
      vertex -8.06066 5.35 1.93934
      vertex -8.1926 5.35 2.11129
    endloop
  endfacet
  facet normal 0.793353 0 0.608762
    outer loop
      vertex -8.06066 5.35 1.93934
      vertex -8.16674 -5.5 2.07758
      vertex -8.06066 -5.5 1.93934
    endloop
  endfacet
  facet normal 0.793352 2.21627e-08 0.608763
    outer loop
      vertex -8.20643 11.15 2.12931
      vertex -8.06066 16.5 1.93934
      vertex -8.21918 16.5 2.14593
    endloop
  endfacet
  facet normal 0.793352 0 0.608763
    outer loop
      vertex -8.06066 16.5 1.93934
      vertex -8.20643 11.15 2.12931
      vertex -8.06066 11.15 1.93934
    endloop
  endfacet
  facet normal 0.92388 -0 0.382682
    outer loop
      vertex -8.44889 -5.5 2.61177
      vertex -8.36595 5.35 2.41153
      vertex -8.44889 5.35 2.61177
    endloop
  endfacet
  facet normal 0.923881 -4.64304e-08 0.38268
    outer loop
      vertex -8.36595 5.35 2.41153
      vertex -8.44889 -5.5 2.61177
      vertex -8.38221 -5.5 2.45078
    endloop
  endfacet
  facet normal 0.92388 -0 0.382682
    outer loop
      vertex -8.44889 11.15 2.61177
      vertex -8.34924 16.5 2.37119
      vertex -8.44889 16.5 2.61177
    endloop
  endfacet
  facet normal 0.923881 -1.01386e-07 0.38268
    outer loop
      vertex -8.34924 16.5 2.37119
      vertex -8.44889 11.15 2.61177
      vertex -8.35725 11.15 2.39055
    endloop
  endfacet
  facet normal 0.382682 0 0.92388
    outer loop
      vertex -7.75 5.35 1.70096
      vertex -7.38823 -5.5 1.55111
      vertex -7.38823 5.35 1.55111
    endloop
  endfacet
  facet normal 0.382682 0 0.92388
    outer loop
      vertex -7.38823 -5.5 1.55111
      vertex -7.75 5.35 1.70096
      vertex -7.75 -5.5 1.70096
    endloop
  endfacet
  facet normal 0.382682 0 0.92388
    outer loop
      vertex -7.75 16.5 1.70096
      vertex -7.38823 11.15 1.55111
      vertex -7.38823 16.5 1.55111
    endloop
  endfacet
  facet normal 0.382682 0 0.92388
    outer loop
      vertex -7.38823 11.15 1.55111
      vertex -7.75 16.5 1.70096
      vertex -7.75 11.15 1.70096
    endloop
  endfacet
  facet normal 0.130527 0 -0.991445
    outer loop
      vertex -7.2374 11.15 4.46874
      vertex -7 16.5 4.5
      vertex -7 11.15 4.5
    endloop
  endfacet
  facet normal 0.130526 5.69334e-08 -0.991445
    outer loop
      vertex -7 16.5 4.5
      vertex -7.2374 11.15 4.46874
      vertex -7.25817 16.5 4.46601
    endloop
  endfacet
  facet normal 0.130527 0 -0.991445
    outer loop
      vertex -7.17276 -5.5 4.47725
      vertex -7 5.35 4.5
      vertex -7 -5.5 4.5
    endloop
  endfacet
  facet normal 0.130527 3.72444e-10 -0.991445
    outer loop
      vertex -7 5.35 4.5
      vertex -7.17276 -5.5 4.47725
      vertex -7.21488 5.35 4.47171
    endloop
  endfacet
  facet normal -0.130529 0 -0.991444
    outer loop
      vertex -6.61177 11.15 4.44889
      vertex -6.74183 16.5 4.46601
      vertex -6.61177 16.5 4.44889
    endloop
  endfacet
  facet normal -0.130527 5.06929e-08 -0.991445
    outer loop
      vertex -6.74183 16.5 4.46601
      vertex -6.61177 11.15 4.44889
      vertex -6.7626 11.15 4.46874
    endloop
  endfacet
  facet normal -0.130527 0 -0.991445
    outer loop
      vertex -6.61177 -5.5 4.44889
      vertex -6.78512 5.35 4.47171
      vertex -6.61177 5.35 4.44889
    endloop
  endfacet
  facet normal -0.130527 2.68066e-10 -0.991445
    outer loop
      vertex -6.78512 5.35 4.47171
      vertex -6.61177 -5.5 4.44889
      vertex -6.82724 -5.5 4.47725
    endloop
  endfacet
  facet normal -0.608762 0 -0.793353
    outer loop
      vertex -6.25 11.15 4.29904
      vertex -5.93934 16.5 4.06066
      vertex -5.93934 11.15 4.06066
    endloop
  endfacet
  facet normal -0.608762 0 -0.793353
    outer loop
      vertex -5.93934 16.5 4.06066
      vertex -6.25 11.15 4.29904
      vertex -6.25 16.5 4.29904
    endloop
  endfacet
  facet normal -0.608762 0 -0.793353
    outer loop
      vertex -6.25 -5.5 4.29904
      vertex -5.93934 5.35 4.06066
      vertex -5.93934 -5.5 4.06066
    endloop
  endfacet
  facet normal -0.608762 0 -0.793353
    outer loop
      vertex -5.93934 5.35 4.06066
      vertex -6.25 -5.5 4.29904
      vertex -6.25 5.35 4.29904
    endloop
  endfacet
  facet normal -0.92388 0 0.382682
    outer loop
      vertex -5.70096 -5.5 2.25
      vertex -5.63405 5.35 2.41153
      vertex -5.70096 5.35 2.25
    endloop
  endfacet
  facet normal -0.92388 3.60156e-09 0.382682
    outer loop
      vertex -5.63405 5.35 2.41153
      vertex -5.70096 -5.5 2.25
      vertex -5.61779 -5.5 2.45078
    endloop
  endfacet
  facet normal -0.92388 1.70539e-08 0.382681
    outer loop
      vertex -5.70096 11.15 2.25
      vertex -5.65076 16.5 2.37119
      vertex -5.70096 16.5 2.25
    endloop
  endfacet
  facet normal -0.92388 -1.09624e-08 0.382682
    outer loop
      vertex -5.65076 16.5 2.37119
      vertex -5.70096 11.15 2.25
      vertex -5.64274 11.15 2.39055
    endloop
  endfacet
  facet normal 0.793354 -0 0.608761
    outer loop
      vertex -8.29904 -5.5 2.25
      vertex -8.1926 5.35 2.11129
      vertex -8.29904 5.35 2.25
    endloop
  endfacet
  facet normal 0.793352 4.65338e-08 0.608763
    outer loop
      vertex -8.1926 5.35 2.11129
      vertex -8.29904 -5.5 2.25
      vertex -8.16674 -5.5 2.07758
    endloop
  endfacet
  facet normal 0.793352 2.7129e-08 0.608763
    outer loop
      vertex -8.29904 11.15 2.25
      vertex -8.21918 16.5 2.14593
      vertex -8.29904 16.5 2.25
    endloop
  endfacet
  facet normal 0.793352 2.45326e-08 0.608763
    outer loop
      vertex -8.21918 16.5 2.14593
      vertex -8.29904 11.15 2.25
      vertex -8.20643 11.15 2.12931
    endloop
  endfacet
  facet normal 0.991445 7.22695e-09 -0.130529
    outer loop
      vertex -8.47725 -5.5 3.17276
      vertex -8.5 5.35 3
      vertex -8.47171 5.35 3.21488
    endloop
  endfacet
  facet normal 0.991444 0 -0.130529
    outer loop
      vertex -8.5 5.35 3
      vertex -8.47725 -5.5 3.17276
      vertex -8.5 -5.5 3
    endloop
  endfacet
  facet normal 0.991444 -1.1815e-07 -0.130529
    outer loop
      vertex -8.46875 11.15 3.2374
      vertex -8.5 16.5 3
      vertex -8.46601 16.5 3.25817
    endloop
  endfacet
  facet normal 0.991445 -5.81683e-09 -0.130527
    outer loop
      vertex -8.5 16.5 3
      vertex -8.46875 11.15 3.2374
      vertex -8.5 11.15 3
    endloop
  endfacet
  facet normal 0.608763 0 -0.793352
    outer loop
      vertex -8.06066 11.15 4.06066
      vertex -7.75 16.5 4.29904
      vertex -7.75 11.15 4.29904
    endloop
  endfacet
  facet normal 0.608763 0 -0.793352
    outer loop
      vertex -7.75 16.5 4.29904
      vertex -8.06066 11.15 4.06066
      vertex -8.06066 16.5 4.06066
    endloop
  endfacet
  facet normal 0.608763 0 -0.793352
    outer loop
      vertex -8.06066 -5.5 4.06066
      vertex -7.75 5.35 4.29904
      vertex -7.75 -5.5 4.29904
    endloop
  endfacet
  facet normal 0.608763 0 -0.793352
    outer loop
      vertex -7.75 5.35 4.29904
      vertex -8.06066 -5.5 4.06066
      vertex -8.06066 5.35 4.06066
    endloop
  endfacet
  facet normal 0.130528 -2.1637e-08 0.991445
    outer loop
      vertex -7.38823 16.5 1.55111
      vertex -7.15083 11.15 1.51986
      vertex -7.13006 16.5 1.51712
    endloop
  endfacet
  facet normal 0.130529 0 0.991445
    outer loop
      vertex -7.15083 11.15 1.51986
      vertex -7.38823 16.5 1.55111
      vertex -7.38823 11.15 1.55111
    endloop
  endfacet
  facet normal 0.130529 4.11465e-09 0.991445
    outer loop
      vertex -7.38823 5.35 1.55111
      vertex -7.21547 -5.5 1.52837
      vertex -7.17334 5.35 1.52282
    endloop
  endfacet
  facet normal 0.130529 0 0.991445
    outer loop
      vertex -7.21547 -5.5 1.52837
      vertex -7.38823 5.35 1.55111
      vertex -7.38823 -5.5 1.55111
    endloop
  endfacet
  facet normal -0.130526 -4.93588e-10 0.991445
    outer loop
      vertex -7 16.5 1.5
      vertex -6.84917 11.15 1.51986
      vertex -6.86994 16.5 1.51712
    endloop
  endfacet
  facet normal -0.130526 0 0.991445
    outer loop
      vertex -6.84917 11.15 1.51986
      vertex -7 16.5 1.5
      vertex -7 11.15 1.5
    endloop
  endfacet
  facet normal -0.130525 1.85009e-08 0.991445
    outer loop
      vertex -7 5.35 1.5
      vertex -6.78453 -5.5 1.52837
      vertex -6.82666 5.35 1.52282
    endloop
  endfacet
  facet normal -0.130526 0 0.991445
    outer loop
      vertex -6.78453 -5.5 1.52837
      vertex -7 5.35 1.5
      vertex -7 -5.5 1.5
    endloop
  endfacet
  facet normal -0.608762 0 0.793353
    outer loop
      vertex -6.25 5.35 1.70096
      vertex -5.93934 -5.5 1.93934
      vertex -5.93934 5.35 1.93934
    endloop
  endfacet
  facet normal -0.608762 0 0.793353
    outer loop
      vertex -5.93934 -5.5 1.93934
      vertex -6.25 5.35 1.70096
      vertex -6.25 -5.5 1.70096
    endloop
  endfacet
  facet normal -0.608762 0 0.793353
    outer loop
      vertex -6.25 16.5 1.70096
      vertex -5.93934 11.15 1.93934
      vertex -5.93934 16.5 1.93934
    endloop
  endfacet
  facet normal -0.608762 0 0.793353
    outer loop
      vertex -5.93934 11.15 1.93934
      vertex -6.25 16.5 1.70096
      vertex -6.25 11.15 1.70096
    endloop
  endfacet
  facet normal -0.130528 0 0.991445
    outer loop
      vertex -6.61177 16.5 1.55111
      vertex -6.84917 11.15 1.51986
      vertex -6.61177 11.15 1.55111
    endloop
  endfacet
  facet normal -0.130528 -9.06725e-09 0.991445
    outer loop
      vertex -6.84917 11.15 1.51986
      vertex -6.61177 16.5 1.55111
      vertex -6.86994 16.5 1.51712
    endloop
  endfacet
  facet normal -0.130528 0 0.991445
    outer loop
      vertex -6.61177 5.35 1.55111
      vertex -6.78453 -5.5 1.52837
      vertex -6.61177 -5.5 1.55111
    endloop
  endfacet
  facet normal -0.130529 5.23914e-09 0.991445
    outer loop
      vertex -6.78453 -5.5 1.52837
      vertex -6.61177 5.35 1.55111
      vertex -6.82666 5.35 1.52282
    endloop
  endfacet
  facet normal -0.382683 0 -0.92388
    outer loop
      vertex -6.61177 11.15 4.44889
      vertex -6.25 16.5 4.29904
      vertex -6.25 11.15 4.29904
    endloop
  endfacet
  facet normal -0.382683 0 -0.92388
    outer loop
      vertex -6.25 16.5 4.29904
      vertex -6.61177 11.15 4.44889
      vertex -6.61177 16.5 4.44889
    endloop
  endfacet
  facet normal -0.382683 0 -0.92388
    outer loop
      vertex -6.61177 -5.5 4.44889
      vertex -6.25 5.35 4.29904
      vertex -6.25 -5.5 4.29904
    endloop
  endfacet
  facet normal -0.382683 0 -0.92388
    outer loop
      vertex -6.25 5.35 4.29904
      vertex -6.61177 -5.5 4.44889
      vertex -6.61177 5.35 4.44889
    endloop
  endfacet
  facet normal -0.793353 -1.6474e-08 -0.608762
    outer loop
      vertex -5.80704 -5.5 3.88824
      vertex -5.93934 5.35 4.06066
      vertex -5.8329 5.35 3.92195
    endloop
  endfacet
  facet normal -0.793352 -0 -0.608763
    outer loop
      vertex -5.93934 5.35 4.06066
      vertex -5.80704 -5.5 3.88824
      vertex -5.93934 -5.5 4.06066
    endloop
  endfacet
  facet normal -0.793352 5.09248e-08 -0.608764
    outer loop
      vertex -5.84673 11.15 3.93997
      vertex -5.93934 16.5 4.06066
      vertex -5.85948 16.5 3.95659
    endloop
  endfacet
  facet normal -0.793353 -0 -0.608762
    outer loop
      vertex -5.93934 16.5 4.06066
      vertex -5.84673 11.15 3.93997
      vertex -5.93934 11.15 4.06066
    endloop
  endfacet
  facet normal -0.92388 3.27396e-09 0.382682
    outer loop
      vertex -5.61779 -5.5 2.45078
      vertex -5.55111 5.35 2.61177
      vertex -5.63405 5.35 2.41153
    endloop
  endfacet
  facet normal -0.92388 0 0.382682
    outer loop
      vertex -5.55111 5.35 2.61177
      vertex -5.61779 -5.5 2.45078
      vertex -5.55111 -5.5 2.61177
    endloop
  endfacet
  facet normal -0.92388 -1.08856e-08 0.382682
    outer loop
      vertex -5.64274 11.15 2.39055
      vertex -5.55111 16.5 2.61177
      vertex -5.65076 16.5 2.37119
    endloop
  endfacet
  facet normal -0.92388 0 0.382682
    outer loop
      vertex -5.55111 16.5 2.61177
      vertex -5.64274 11.15 2.39055
      vertex -5.55111 11.15 2.61177
    endloop
  endfacet
  facet normal -0.991445 0 0.130527
    outer loop
      vertex -5.55111 -5.5 2.61177
      vertex -5.52282 5.35 2.82666
      vertex -5.55111 5.35 2.61177
    endloop
  endfacet
  facet normal -0.991445 2.36076e-10 0.130527
    outer loop
      vertex -5.52282 5.35 2.82666
      vertex -5.55111 -5.5 2.61177
      vertex -5.52837 -5.5 2.78453
    endloop
  endfacet
  facet normal -0.991445 0 0.130526
    outer loop
      vertex -5.55111 11.15 2.61177
      vertex -5.51712 16.5 2.86994
      vertex -5.55111 16.5 2.61177
    endloop
  endfacet
  facet normal -0.991445 4.6325e-08 0.130525
    outer loop
      vertex -5.51712 16.5 2.86994
      vertex -5.55111 11.15 2.61177
      vertex -5.51986 11.15 2.84917
    endloop
  endfacet
  facet normal 0.991445 -0 0.130527
    outer loop
      vertex -8.5 -5.5 3
      vertex -8.47718 5.35 2.82666
      vertex -8.5 5.35 3
    endloop
  endfacet
  facet normal 0.991445 -8.28788e-10 0.130527
    outer loop
      vertex -8.47718 5.35 2.82666
      vertex -8.5 -5.5 3
      vertex -8.47163 -5.5 2.78453
    endloop
  endfacet
  facet normal 0.991445 5.81678e-09 0.130526
    outer loop
      vertex -8.5 11.15 3
      vertex -8.48288 16.5 2.86994
      vertex -8.5 16.5 3
    endloop
  endfacet
  facet normal 0.991444 1.14671e-07 0.13053
    outer loop
      vertex -8.48288 16.5 2.86994
      vertex -8.5 11.15 3
      vertex -8.48014 11.15 2.84917
    endloop
  endfacet
  facet normal 0.991444 -8.35145e-09 0.130529
    outer loop
      vertex -8.47163 -5.5 2.78453
      vertex -8.44889 5.35 2.61177
      vertex -8.47718 5.35 2.82666
    endloop
  endfacet
  facet normal 0.991444 0 0.13053
    outer loop
      vertex -8.44889 5.35 2.61177
      vertex -8.47163 -5.5 2.78453
      vertex -8.44889 -5.5 2.61177
    endloop
  endfacet
  facet normal 0.991444 1.16746e-07 0.13053
    outer loop
      vertex -8.48014 11.15 2.84917
      vertex -8.44889 16.5 2.61177
      vertex -8.48288 16.5 2.86994
    endloop
  endfacet
  facet normal 0.991445 0 0.130527
    outer loop
      vertex -8.44889 16.5 2.61177
      vertex -8.48014 11.15 2.84917
      vertex -8.44889 11.15 2.61177
    endloop
  endfacet
  facet normal 0.92388 -3.61261e-08 0.382682
    outer loop
      vertex -8.38221 -5.5 2.45078
      vertex -8.29904 5.35 2.25
      vertex -8.36595 5.35 2.41153
    endloop
  endfacet
  facet normal 0.923879 0 0.382684
    outer loop
      vertex -8.29904 5.35 2.25
      vertex -8.38221 -5.5 2.45078
      vertex -8.29904 -5.5 2.25
    endloop
  endfacet
  facet normal 0.92388 -9.77807e-08 0.382681
    outer loop
      vertex -8.35725 11.15 2.39055
      vertex -8.29904 16.5 2.25
      vertex -8.34924 16.5 2.37119
    endloop
  endfacet
  facet normal 0.923879 1.70541e-08 0.382685
    outer loop
      vertex -8.29904 16.5 2.25
      vertex -8.35725 11.15 2.39055
      vertex -8.29904 11.15 2.25
    endloop
  endfacet
  facet normal 0.130527 6.23266e-08 -0.991445
    outer loop
      vertex -7.38823 11.15 4.44889
      vertex -7.25817 16.5 4.46601
      vertex -7.2374 11.15 4.46874
    endloop
  endfacet
  facet normal 0.13053 0 -0.991444
    outer loop
      vertex -7.25817 16.5 4.46601
      vertex -7.38823 11.15 4.44889
      vertex -7.38823 16.5 4.44889
    endloop
  endfacet
  facet normal 0.130527 1.38951e-09 -0.991445
    outer loop
      vertex -7.38823 -5.5 4.44889
      vertex -7.21488 5.35 4.47171
      vertex -7.17276 -5.5 4.47725
    endloop
  endfacet
  facet normal 0.130528 0 -0.991445
    outer loop
      vertex -7.21488 5.35 4.47171
      vertex -7.38823 -5.5 4.44889
      vertex -7.38823 5.35 4.44889
    endloop
  endfacet
  facet normal -0.793351 0 0.608764
    outer loop
      vertex -5.93934 -5.5 1.93934
      vertex -5.8074 5.35 2.11129
      vertex -5.93934 5.35 1.93934
    endloop
  endfacet
  facet normal -0.793351 7.43285e-09 0.608764
    outer loop
      vertex -5.8074 5.35 2.11129
      vertex -5.93934 -5.5 1.93934
      vertex -5.83326 -5.5 2.07758
    endloop
  endfacet
  facet normal -0.793352 0 0.608763
    outer loop
      vertex -5.93934 11.15 1.93934
      vertex -5.78082 16.5 2.14593
      vertex -5.93934 16.5 1.93934
    endloop
  endfacet
  facet normal -0.793351 -5.27949e-08 0.608764
    outer loop
      vertex -5.78082 16.5 2.14593
      vertex -5.93934 11.15 1.93934
      vertex -5.79357 11.15 2.12931
    endloop
  endfacet
  facet normal -0.793354 2.29752e-08 0.608761
    outer loop
      vertex -5.83326 -5.5 2.07758
      vertex -5.70096 5.35 2.25
      vertex -5.8074 5.35 2.11129
    endloop
  endfacet
  facet normal -0.793353 0 0.608762
    outer loop
      vertex -5.70096 5.35 2.25
      vertex -5.83326 -5.5 2.07758
      vertex -5.70096 -5.5 2.25
    endloop
  endfacet
  facet normal -0.793352 -4.65923e-08 0.608763
    outer loop
      vertex -5.79357 11.15 2.12931
      vertex -5.70096 16.5 2.25
      vertex -5.78082 16.5 2.14593
    endloop
  endfacet
  facet normal -0.793354 2.71289e-08 0.608761
    outer loop
      vertex -5.70096 16.5 2.25
      vertex -5.79357 11.15 2.12931
      vertex -5.70096 11.15 2.25
    endloop
  endfacet
  facet normal -0.382683 0 0.92388
    outer loop
      vertex -6.61177 5.35 1.55111
      vertex -6.25 -5.5 1.70096
      vertex -6.25 5.35 1.70096
    endloop
  endfacet
  facet normal -0.382683 0 0.92388
    outer loop
      vertex -6.25 -5.5 1.70096
      vertex -6.61177 5.35 1.55111
      vertex -6.61177 -5.5 1.55111
    endloop
  endfacet
  facet normal -0.382683 0 0.92388
    outer loop
      vertex -6.61177 16.5 1.55111
      vertex -6.25 11.15 1.70096
      vertex -6.25 16.5 1.70096
    endloop
  endfacet
  facet normal -0.382683 0 0.92388
    outer loop
      vertex -6.25 11.15 1.70096
      vertex -6.61177 16.5 1.55111
      vertex -6.61177 11.15 1.55111
    endloop
  endfacet
  facet normal 0.793353 0 -0.608762
    outer loop
      vertex -8.06066 -5.5 4.06066
      vertex -8.1671 5.35 3.92195
      vertex -8.06066 5.35 4.06066
    endloop
  endfacet
  facet normal 0.793351 -4.13035e-08 -0.608764
    outer loop
      vertex -8.1671 5.35 3.92195
      vertex -8.06066 -5.5 4.06066
      vertex -8.19296 -5.5 3.88824
    endloop
  endfacet
  facet normal 0.793352 0 -0.608764
    outer loop
      vertex -8.06066 11.15 4.06066
      vertex -8.14052 16.5 3.95659
      vertex -8.06066 16.5 4.06066
    endloop
  endfacet
  facet normal 0.793351 -1.70607e-08 -0.608764
    outer loop
      vertex -8.14052 16.5 3.95659
      vertex -8.06066 11.15 4.06066
      vertex -8.15327 11.15 3.93997
    endloop
  endfacet
  facet normal 0.92388 0 -0.382683
    outer loop
      vertex -8.29904 -5.5 3.75
      vertex -8.38198 5.35 3.54976
      vertex -8.29904 5.35 3.75
    endloop
  endfacet
  facet normal 0.923881 4.23298e-08 -0.382681
    outer loop
      vertex -8.38198 5.35 3.54976
      vertex -8.29904 -5.5 3.75
      vertex -8.36572 -5.5 3.58901
    endloop
  endfacet
  facet normal 0.92388 -1.7054e-08 -0.382683
    outer loop
      vertex -8.29904 11.15 3.75
      vertex -8.39869 16.5 3.50942
      vertex -8.29904 16.5 3.75
    endloop
  endfacet
  facet normal 0.923881 9.84022e-08 -0.382681
    outer loop
      vertex -8.39869 16.5 3.50942
      vertex -8.29904 11.15 3.75
      vertex -8.39067 11.15 3.52878
    endloop
  endfacet
  facet normal 0.92388 4.02129e-08 -0.382681
    outer loop
      vertex -8.36572 -5.5 3.58901
      vertex -8.44889 5.35 3.38823
      vertex -8.38198 5.35 3.54976
    endloop
  endfacet
  facet normal 0.92388 0 -0.382683
    outer loop
      vertex -8.44889 5.35 3.38823
      vertex -8.36572 -5.5 3.58901
      vertex -8.44889 -5.5 3.38823
    endloop
  endfacet
  facet normal 0.923881 1.00504e-07 -0.382681
    outer loop
      vertex -8.39067 11.15 3.52878
      vertex -8.44889 16.5 3.38823
      vertex -8.39869 16.5 3.50942
    endloop
  endfacet
  facet normal 0.923879 0 -0.382684
    outer loop
      vertex -8.44889 16.5 3.38823
      vertex -8.39067 11.15 3.52878
      vertex -8.44889 11.15 3.38823
    endloop
  endfacet
  facet normal 0 -0.25882 0.965926
    outer loop
      vertex 72 16.55 2.04737
      vertex 78 16 1.9
      vertex 78 16.55 2.04737
    endloop
  endfacet
  facet normal 0 -0.25882 0.965926
    outer loop
      vertex 78 16 1.9
      vertex 72 16.55 2.04737
      vertex 72 16 1.9
    endloop
  endfacet
  facet normal 0 0.258819 -0.965926
    outer loop
      vertex 72 15.45 3.95263
      vertex 78 16 4.1
      vertex 78 15.45 3.95263
    endloop
  endfacet
  facet normal 0 0.258819 -0.965926
    outer loop
      vertex 78 16 4.1
      vertex 72 15.45 3.95263
      vertex 72 16 4.1
    endloop
  endfacet
  facet normal 0 0.965926 0.258819
    outer loop
      vertex 78 15.0474 2.45
      vertex 72 14.9 3
      vertex 78 14.9 3
    endloop
  endfacet
  facet normal 0 0.965926 0.258819
    outer loop
      vertex 72 14.9 3
      vertex 78 15.0474 2.45
      vertex 72 15.0474 2.45
    endloop
  endfacet
  facet normal 0 -0.965926 -0.258818
    outer loop
      vertex 72 17.1 3
      vertex 78 16.9526 3.55
      vertex 72 16.9526 3.55
    endloop
  endfacet
  facet normal 0 -0.965926 -0.258818
    outer loop
      vertex 78 16.9526 3.55
      vertex 72 17.1 3
      vertex 78 17.1 3
    endloop
  endfacet
  facet normal 1 0 0
    outer loop
      vertex 72 16.9526 3.55
      vertex 72 16.9526 2.45
      vertex 72 17.1 3
    endloop
  endfacet
  facet normal 1 0 0
    outer loop
      vertex 72 16.55 3.95263
      vertex 72 16.9526 2.45
      vertex 72 16.9526 3.55
    endloop
  endfacet
  facet normal 1 0 0
    outer loop
      vertex 72 16.55 3.95263
      vertex 72 16.55 2.04737
      vertex 72 16.9526 2.45
    endloop
  endfacet
  facet normal 1 0 0
    outer loop
      vertex 72 16 4.1
      vertex 72 16.55 2.04737
      vertex 72 16.55 3.95263
    endloop
  endfacet
  facet normal 1 0 0
    outer loop
      vertex 72 16 4.1
      vertex 72 16 1.9
      vertex 72 16.55 2.04737
    endloop
  endfacet
  facet normal 1 -0 0
    outer loop
      vertex 72 15.45 3.95263
      vertex 72 16 1.9
      vertex 72 16 4.1
    endloop
  endfacet
  facet normal 1 0 0
    outer loop
      vertex 72 15.45 3.95263
      vertex 72 15.45 2.04737
      vertex 72 16 1.9
    endloop
  endfacet
  facet normal 1 -0 0
    outer loop
      vertex 72 15.0474 3.55
      vertex 72 15.45 2.04737
      vertex 72 15.45 3.95263
    endloop
  endfacet
  facet normal 1 0 0
    outer loop
      vertex 72 15.0474 3.55
      vertex 72 15.0474 2.45
      vertex 72 15.45 2.04737
    endloop
  endfacet
  facet normal 1 0 -0
    outer loop
      vertex 72 15.0474 2.45
      vertex 72 15.0474 3.55
      vertex 72 14.9 3
    endloop
  endfacet
  facet normal 0 -0.707107 0.707107
    outer loop
      vertex 72 16.55 2.04737
      vertex 78 16.9526 2.45
      vertex 72 16.9526 2.45
    endloop
  endfacet
  facet normal 0 -0.707107 0.707107
    outer loop
      vertex 78 16.9526 2.45
      vertex 72 16.55 2.04737
      vertex 78 16.55 2.04737
    endloop
  endfacet
  facet normal 0 -0.25882 -0.965926
    outer loop
      vertex 72 16 4.1
      vertex 78 16.55 3.95263
      vertex 78 16 4.1
    endloop
  endfacet
  facet normal -0 -0.25882 -0.965926
    outer loop
      vertex 78 16.55 3.95263
      vertex 72 16 4.1
      vertex 72 16.55 3.95263
    endloop
  endfacet
  facet normal 0 -0.707107 -0.707107
    outer loop
      vertex 72 16.9526 3.55
      vertex 78 16.55 3.95263
      vertex 72 16.55 3.95263
    endloop
  endfacet
  facet normal 0 -0.707107 -0.707107
    outer loop
      vertex 78 16.55 3.95263
      vertex 72 16.9526 3.55
      vertex 78 16.9526 3.55
    endloop
  endfacet
  facet normal 0 0.707107 0.707107
    outer loop
      vertex 78 15.45 2.04737
      vertex 72 15.0474 2.45
      vertex 78 15.0474 2.45
    endloop
  endfacet
  facet normal 0 0.707107 0.707107
    outer loop
      vertex 72 15.0474 2.45
      vertex 78 15.45 2.04737
      vertex 72 15.45 2.04737
    endloop
  endfacet
  facet normal 0 -0.965926 0.258818
    outer loop
      vertex 72 16.9526 2.45
      vertex 78 17.1 3
      vertex 72 17.1 3
    endloop
  endfacet
  facet normal 0 -0.965926 0.258818
    outer loop
      vertex 78 17.1 3
      vertex 72 16.9526 2.45
      vertex 78 16.9526 2.45
    endloop
  endfacet
  facet normal 0 0.965926 -0.25882
    outer loop
      vertex 78 14.9 3
      vertex 72 15.0474 3.55
      vertex 78 15.0474 3.55
    endloop
  endfacet
  facet normal 0 0.965926 -0.25882
    outer loop
      vertex 72 15.0474 3.55
      vertex 78 14.9 3
      vertex 72 14.9 3
    endloop
  endfacet
  facet normal 0 0.707107 -0.707107
    outer loop
      vertex 78 15.0474 3.55
      vertex 72 15.45 3.95263
      vertex 78 15.45 3.95263
    endloop
  endfacet
  facet normal 0 0.707107 -0.707107
    outer loop
      vertex 72 15.45 3.95263
      vertex 78 15.0474 3.55
      vertex 72 15.0474 3.55
    endloop
  endfacet
  facet normal -0 0.258819 0.965926
    outer loop
      vertex 72 16 1.9
      vertex 78 15.45 2.04737
      vertex 78 16 1.9
    endloop
  endfacet
  facet normal 0 0.258819 0.965926
    outer loop
      vertex 78 15.45 2.04737
      vertex 72 16 1.9
      vertex 72 15.45 2.04737
    endloop
  endfacet
  facet normal 0 -0.25882 0.965926
    outer loop
      vertex 72 6.55 2.04737
      vertex 78 6 1.9
      vertex 78 6.55 2.04737
    endloop
  endfacet
  facet normal 0 -0.25882 0.965926
    outer loop
      vertex 78 6 1.9
      vertex 72 6.55 2.04737
      vertex 72 6 1.9
    endloop
  endfacet
  facet normal 0 0.258819 -0.965926
    outer loop
      vertex 72 5.45 3.95263
      vertex 78 6 4.1
      vertex 78 5.45 3.95263
    endloop
  endfacet
  facet normal 0 0.258819 -0.965926
    outer loop
      vertex 78 6 4.1
      vertex 72 5.45 3.95263
      vertex 72 6 4.1
    endloop
  endfacet
  facet normal 0 0.965926 0.258819
    outer loop
      vertex 78 5.04737 2.45
      vertex 72 4.9 3
      vertex 78 4.9 3
    endloop
  endfacet
  facet normal 0 0.965926 0.258819
    outer loop
      vertex 72 4.9 3
      vertex 78 5.04737 2.45
      vertex 72 5.04737 2.45
    endloop
  endfacet
  facet normal 0 -0.965926 -0.25882
    outer loop
      vertex 72 7.1 3
      vertex 78 6.95263 3.55
      vertex 72 6.95263 3.55
    endloop
  endfacet
  facet normal 0 -0.965926 -0.25882
    outer loop
      vertex 78 6.95263 3.55
      vertex 72 7.1 3
      vertex 78 7.1 3
    endloop
  endfacet
  facet normal 1 0 0
    outer loop
      vertex 72 6.95263 3.55
      vertex 72 6.95263 2.45
      vertex 72 7.1 3
    endloop
  endfacet
  facet normal 1 0 0
    outer loop
      vertex 72 6.55 3.95263
      vertex 72 6.95263 2.45
      vertex 72 6.95263 3.55
    endloop
  endfacet
  facet normal 1 0 0
    outer loop
      vertex 72 6.55 3.95263
      vertex 72 6.55 2.04737
      vertex 72 6.95263 2.45
    endloop
  endfacet
  facet normal 1 0 0
    outer loop
      vertex 72 6 4.1
      vertex 72 6.55 2.04737
      vertex 72 6.55 3.95263
    endloop
  endfacet
  facet normal 1 0 0
    outer loop
      vertex 72 6 4.1
      vertex 72 6 1.9
      vertex 72 6.55 2.04737
    endloop
  endfacet
  facet normal 1 -0 0
    outer loop
      vertex 72 5.45 3.95263
      vertex 72 6 1.9
      vertex 72 6 4.1
    endloop
  endfacet
  facet normal 1 0 0
    outer loop
      vertex 72 5.45 3.95263
      vertex 72 5.45 2.04737
      vertex 72 6 1.9
    endloop
  endfacet
  facet normal 1 -0 0
    outer loop
      vertex 72 5.04737 3.55
      vertex 72 5.45 2.04737
      vertex 72 5.45 3.95263
    endloop
  endfacet
  facet normal 1 0 0
    outer loop
      vertex 72 5.04737 3.55
      vertex 72 5.04737 2.45
      vertex 72 5.45 2.04737
    endloop
  endfacet
  facet normal 1 0 -0
    outer loop
      vertex 72 5.04737 2.45
      vertex 72 5.04737 3.55
      vertex 72 4.9 3
    endloop
  endfacet
  facet normal 0 -0.707107 0.707107
    outer loop
      vertex 72 6.55 2.04737
      vertex 78 6.95263 2.45
      vertex 72 6.95263 2.45
    endloop
  endfacet
  facet normal 0 -0.707107 0.707107
    outer loop
      vertex 78 6.95263 2.45
      vertex 72 6.55 2.04737
      vertex 78 6.55 2.04737
    endloop
  endfacet
  facet normal 0 -0.25882 -0.965926
    outer loop
      vertex 72 6 4.1
      vertex 78 6.55 3.95263
      vertex 78 6 4.1
    endloop
  endfacet
  facet normal -0 -0.25882 -0.965926
    outer loop
      vertex 78 6.55 3.95263
      vertex 72 6 4.1
      vertex 72 6.55 3.95263
    endloop
  endfacet
  facet normal 0 -0.707107 -0.707107
    outer loop
      vertex 72 6.95263 3.55
      vertex 78 6.55 3.95263
      vertex 72 6.55 3.95263
    endloop
  endfacet
  facet normal 0 -0.707107 -0.707107
    outer loop
      vertex 78 6.55 3.95263
      vertex 72 6.95263 3.55
      vertex 78 6.95263 3.55
    endloop
  endfacet
  facet normal 0 0.707107 0.707107
    outer loop
      vertex 78 5.45 2.04737
      vertex 72 5.04737 2.45
      vertex 78 5.04737 2.45
    endloop
  endfacet
  facet normal 0 0.707107 0.707107
    outer loop
      vertex 72 5.04737 2.45
      vertex 78 5.45 2.04737
      vertex 72 5.45 2.04737
    endloop
  endfacet
  facet normal 0 -0.965926 0.258819
    outer loop
      vertex 72 6.95263 2.45
      vertex 78 7.1 3
      vertex 72 7.1 3
    endloop
  endfacet
  facet normal 0 -0.965926 0.258819
    outer loop
      vertex 78 7.1 3
      vertex 72 6.95263 2.45
      vertex 78 6.95263 2.45
    endloop
  endfacet
  facet normal 0 0.965926 -0.25882
    outer loop
      vertex 78 4.9 3
      vertex 72 5.04737 3.55
      vertex 78 5.04737 3.55
    endloop
  endfacet
  facet normal 0 0.965926 -0.25882
    outer loop
      vertex 72 5.04737 3.55
      vertex 78 4.9 3
      vertex 72 4.9 3
    endloop
  endfacet
  facet normal 0 0.707107 -0.707107
    outer loop
      vertex 78 5.04737 3.55
      vertex 72 5.45 3.95263
      vertex 78 5.45 3.95263
    endloop
  endfacet
  facet normal 0 0.707107 -0.707107
    outer loop
      vertex 72 5.45 3.95263
      vertex 78 5.04737 3.55
      vertex 72 5.04737 3.55
    endloop
  endfacet
  facet normal -0 0.258819 0.965926
    outer loop
      vertex 72 6 1.9
      vertex 78 5.45 2.04737
      vertex 78 6 1.9
    endloop
  endfacet
  facet normal 0 0.258819 0.965926
    outer loop
      vertex 78 5.45 2.04737
      vertex 72 6 1.9
      vertex 72 5.45 2.04737
    endloop
  endfacet
  facet normal 0 0 1
    outer loop
      vertex 41.4641 19.016 4
      vertex 40.8661 19.016 4
      vertex 40.9801 16.776 4
    endloop
  endfacet
  facet normal -0 0 1
    outer loop
      vertex 40.9801 16.776 4
      vertex 42.1331 16.2 4
      vertex 42.1331 16.776 4
    endloop
  endfacet
  facet normal 0 0 1
    outer loop
      vertex 40.9801 16.776 4
      vertex 40.8621 16.2 4
      vertex 42.1331 16.2 4
    endloop
  endfacet
  facet normal 0 0 1
    outer loop
      vertex 40.3821 16.776 4
      vertex 40.9801 16.776 4
      vertex 40.8661 19.016 4
    endloop
  endfacet
  facet normal 0 0 1
    outer loop
      vertex 40.9801 16.776 4
      vertex 40.3821 16.776 4
      vertex 40.8621 16.2 4
    endloop
  endfacet
  facet normal 0 0 1
    outer loop
      vertex 40.2591 16.2 4
      vertex 40.8621 16.2 4
      vertex 40.3821 16.776 4
    endloop
  endfacet
  facet normal -0 0 1
    outer loop
      vertex 40.4441 14.216 4
      vertex 41.8561 13.64 4
      vertex 41.8561 14.216 4
    endloop
  endfacet
  facet normal 0 0 1
    outer loop
      vertex 40.4441 14.216 4
      vertex 40.3211 13.64 4
      vertex 41.8561 13.64 4
    endloop
  endfacet
  facet normal 0 0 1
    outer loop
      vertex 40.8621 16.2 4
      vertex 40.2591 16.2 4
      vertex 40.4441 14.216 4
    endloop
  endfacet
  facet normal 0 0 1
    outer loop
      vertex 39.8411 14.216 4
      vertex 40.4441 14.216 4
      vertex 40.2591 16.2 4
    endloop
  endfacet
  facet normal -0 0 1
    outer loop
      vertex 38.4121 16.776 4
      vertex 40.2591 16.2 4
      vertex 40.3821 16.776 4
    endloop
  endfacet
  facet normal 0 0 1
    outer loop
      vertex 40.2591 16.2 4
      vertex 38.4121 16.776 4
      vertex 38.3011 16.2 4
    endloop
  endfacet
  facet normal -0 0 1
    outer loop
      vertex 36.0441 14.216 4
      vertex 37.1441 13.64 4
      vertex 37.2731 14.216 4
    endloop
  endfacet
  facet normal 0 0 1
    outer loop
      vertex 37.1441 13.64 4
      vertex 36.0441 14.216 4
      vertex 36.0441 13.64 4
    endloop
  endfacet
  facet normal 0 0 1
    outer loop
      vertex 37.8761 14.216 4
      vertex 37.2731 14.216 4
      vertex 37.7421 13.64 4
    endloop
  endfacet
  facet normal 0 0 1
    outer loop
      vertex 37.1441 13.64 4
      vertex 37.7421 13.64 4
      vertex 37.2731 14.216 4
    endloop
  endfacet
  facet normal 0 0 1
    outer loop
      vertex 37.7421 13.64 4
      vertex 37.1441 13.64 4
      vertex 37.2781 11.4 4
    endloop
  endfacet
  facet normal 0 0 1
    outer loop
      vertex 37.2781 11.4 4
      vertex 37.1441 13.64 4
      vertex 36.6801 11.4 4
    endloop
  endfacet
  facet normal -0 0 1
    outer loop
      vertex 38.2951 19.016 4
      vertex 38.4121 16.776 4
      vertex 38.8931 19.016 4
    endloop
  endfacet
  facet normal 0 0 1
    outer loop
      vertex 37.8081 16.776 4
      vertex 38.4121 16.776 4
      vertex 38.2951 19.016 4
    endloop
  endfacet
  facet normal 0 0 1
    outer loop
      vertex 38.4121 16.776 4
      vertex 37.8081 16.776 4
      vertex 38.3011 16.2 4
    endloop
  endfacet
  facet normal 0 0 1
    outer loop
      vertex 37.6861 16.2 4
      vertex 38.3011 16.2 4
      vertex 37.8081 16.776 4
    endloop
  endfacet
  facet normal 0 0 1
    outer loop
      vertex 40.4441 14.216 4
      vertex 39.8411 14.216 4
      vertex 40.3211 13.64 4
    endloop
  endfacet
  facet normal 0 0 1
    outer loop
      vertex 39.7141 13.64 4
      vertex 40.3211 13.64 4
      vertex 39.8411 14.216 4
    endloop
  endfacet
  facet normal 0 0 1
    outer loop
      vertex 40.3211 13.64 4
      vertex 39.7141 13.64 4
      vertex 39.8381 11.4 4
    endloop
  endfacet
  facet normal -0 0 1
    outer loop
      vertex 37.8761 14.216 4
      vertex 39.7141 13.64 4
      vertex 39.8411 14.216 4
    endloop
  endfacet
  facet normal 0 0 1
    outer loop
      vertex 37.8761 14.216 4
      vertex 37.7421 13.64 4
      vertex 39.7141 13.64 4
    endloop
  endfacet
  facet normal 0 0 1
    outer loop
      vertex 38.3011 16.2 4
      vertex 37.6861 16.2 4
      vertex 37.8761 14.216 4
    endloop
  endfacet
  facet normal 0 0 1
    outer loop
      vertex 37.2731 14.216 4
      vertex 37.8761 14.216 4
      vertex 37.6861 16.2 4
    endloop
  endfacet
  facet normal -0 0 1
    outer loop
      vertex 36.3211 16.776 4
      vertex 37.6861 16.2 4
      vertex 37.8081 16.776 4
    endloop
  endfacet
  facet normal 0 0 1
    outer loop
      vertex 37.6861 16.2 4
      vertex 36.3211 16.776 4
      vertex 36.3211 16.2 4
    endloop
  endfacet
  facet normal 0 0 1
    outer loop
      vertex 39.8381 11.4 4
      vertex 39.7141 13.64 4
      vertex 39.2401 11.4 4
    endloop
  endfacet
  facet normal 0 1 -0
    outer loop
      vertex 39.7141 13.64 4
      vertex 37.7421 13.64 6
      vertex 39.7141 13.64 6
    endloop
  endfacet
  facet normal 0 1 0
    outer loop
      vertex 37.7421 13.64 6
      vertex 39.7141 13.64 4
      vertex 37.7421 13.64 4
    endloop
  endfacet
  facet normal 0.978336 -0.207023 0
    outer loop
      vertex 39.2401 11.4 6
      vertex 39.7141 13.64 4
      vertex 39.7141 13.64 6
    endloop
  endfacet
  facet normal 0.978336 -0.207023 0
    outer loop
      vertex 39.7141 13.64 4
      vertex 39.2401 11.4 6
      vertex 39.2401 11.4 4
    endloop
  endfacet
  facet normal 0 1 -0
    outer loop
      vertex 39.8381 11.4 4
      vertex 39.2401 11.4 6
      vertex 39.8381 11.4 6
    endloop
  endfacet
  facet normal 0 1 0
    outer loop
      vertex 39.2401 11.4 6
      vertex 39.8381 11.4 4
      vertex 39.2401 11.4 4
    endloop
  endfacet
  facet normal -0.977534 0.210776 0
    outer loop
      vertex 39.8381 11.4 4
      vertex 40.3211 13.64 6
      vertex 40.3211 13.64 4
    endloop
  endfacet
  facet normal -0.977534 0.210776 0
    outer loop
      vertex 40.3211 13.64 6
      vertex 39.8381 11.4 4
      vertex 39.8381 11.4 6
    endloop
  endfacet
  facet normal 0 1 -0
    outer loop
      vertex 41.8561 13.64 4
      vertex 40.3211 13.64 6
      vertex 41.8561 13.64 6
    endloop
  endfacet
  facet normal 0 1 0
    outer loop
      vertex 40.3211 13.64 6
      vertex 41.8561 13.64 4
      vertex 40.3211 13.64 4
    endloop
  endfacet
  facet normal -1 0 0
    outer loop
      vertex 41.8561 13.64 4
      vertex 41.8561 14.216 6
      vertex 41.8561 14.216 4
    endloop
  endfacet
  facet normal -1 -0 0
    outer loop
      vertex 41.8561 14.216 6
      vertex 41.8561 13.64 4
      vertex 41.8561 13.64 6
    endloop
  endfacet
  facet normal 0 -1 0
    outer loop
      vertex 40.4441 14.216 4
      vertex 41.8561 14.216 6
      vertex 40.4441 14.216 6
    endloop
  endfacet
  facet normal 0 -1 -0
    outer loop
      vertex 41.8561 14.216 6
      vertex 40.4441 14.216 4
      vertex 41.8561 14.216 4
    endloop
  endfacet
  facet normal -0.978518 0.20616 0
    outer loop
      vertex 40.4441 14.216 4
      vertex 40.8621 16.2 6
      vertex 40.8621 16.2 4
    endloop
  endfacet
  facet normal -0.978518 0.20616 0
    outer loop
      vertex 40.8621 16.2 6
      vertex 40.4441 14.216 4
      vertex 40.4441 14.216 6
    endloop
  endfacet
  facet normal 0 1 -0
    outer loop
      vertex 42.1331 16.2 4
      vertex 40.8621 16.2 6
      vertex 42.1331 16.2 6
    endloop
  endfacet
  facet normal 0 1 0
    outer loop
      vertex 40.8621 16.2 6
      vertex 42.1331 16.2 4
      vertex 40.8621 16.2 4
    endloop
  endfacet
  facet normal -1 0 0
    outer loop
      vertex 42.1331 16.2 4
      vertex 42.1331 16.776 6
      vertex 42.1331 16.776 4
    endloop
  endfacet
  facet normal -1 -0 0
    outer loop
      vertex 42.1331 16.776 6
      vertex 42.1331 16.2 4
      vertex 42.1331 16.2 6
    endloop
  endfacet
  facet normal 0 -1 0
    outer loop
      vertex 40.9801 16.776 4
      vertex 42.1331 16.776 6
      vertex 40.9801 16.776 6
    endloop
  endfacet
  facet normal 0 -1 -0
    outer loop
      vertex 42.1331 16.776 6
      vertex 40.9801 16.776 4
      vertex 42.1331 16.776 4
    endloop
  endfacet
  facet normal -0.977444 0.211194 0
    outer loop
      vertex 40.9801 16.776 4
      vertex 41.4641 19.016 6
      vertex 41.4641 19.016 4
    endloop
  endfacet
  facet normal -0.977444 0.211194 0
    outer loop
      vertex 41.4641 19.016 6
      vertex 40.9801 16.776 4
      vertex 40.9801 16.776 6
    endloop
  endfacet
  facet normal 0 -1 0
    outer loop
      vertex 40.8661 19.016 4
      vertex 41.4641 19.016 6
      vertex 40.8661 19.016 6
    endloop
  endfacet
  facet normal 0 -1 -0
    outer loop
      vertex 41.4641 19.016 6
      vertex 40.8661 19.016 4
      vertex 41.4641 19.016 4
    endloop
  endfacet
  facet normal 0.977443 -0.211201 0
    outer loop
      vertex 40.3821 16.776 6
      vertex 40.8661 19.016 4
      vertex 40.8661 19.016 6
    endloop
  endfacet
  facet normal 0.977443 -0.211201 0
    outer loop
      vertex 40.8661 19.016 4
      vertex 40.3821 16.776 6
      vertex 40.3821 16.776 4
    endloop
  endfacet
  facet normal 0 -1 0
    outer loop
      vertex 38.4121 16.776 4
      vertex 40.3821 16.776 6
      vertex 38.4121 16.776 6
    endloop
  endfacet
  facet normal 0 -1 -0
    outer loop
      vertex 40.3821 16.776 6
      vertex 38.4121 16.776 4
      vertex 40.3821 16.776 4
    endloop
  endfacet
  facet normal -0.977713 0.209947 0
    outer loop
      vertex 38.4121 16.776 4
      vertex 38.8931 19.016 6
      vertex 38.8931 19.016 4
    endloop
  endfacet
  facet normal -0.977713 0.209947 0
    outer loop
      vertex 38.8931 19.016 6
      vertex 38.4121 16.776 4
      vertex 38.4121 16.776 6
    endloop
  endfacet
  facet normal 0 -1 0
    outer loop
      vertex 38.2951 19.016 4
      vertex 38.8931 19.016 6
      vertex 38.2951 19.016 6
    endloop
  endfacet
  facet normal 0 -1 -0
    outer loop
      vertex 38.8931 19.016 6
      vertex 38.2951 19.016 4
      vertex 38.8931 19.016 4
    endloop
  endfacet
  facet normal 0.977173 -0.212447 0
    outer loop
      vertex 37.8081 16.776 6
      vertex 38.2951 19.016 4
      vertex 38.2951 19.016 6
    endloop
  endfacet
  facet normal 0.977173 -0.212447 0
    outer loop
      vertex 38.2951 19.016 4
      vertex 37.8081 16.776 6
      vertex 37.8081 16.776 4
    endloop
  endfacet
  facet normal 0 -1 0
    outer loop
      vertex 36.3211 16.776 4
      vertex 37.8081 16.776 6
      vertex 36.3211 16.776 6
    endloop
  endfacet
  facet normal 0 -1 -0
    outer loop
      vertex 37.8081 16.776 6
      vertex 36.3211 16.776 4
      vertex 37.8081 16.776 4
    endloop
  endfacet
  facet normal 1 -0 0
    outer loop
      vertex 36.3211 16.2 6
      vertex 36.3211 16.776 4
      vertex 36.3211 16.776 6
    endloop
  endfacet
  facet normal 1 0 0
    outer loop
      vertex 36.3211 16.776 4
      vertex 36.3211 16.2 6
      vertex 36.3211 16.2 4
    endloop
  endfacet
  facet normal 0 1 -0
    outer loop
      vertex 37.6861 16.2 4
      vertex 36.3211 16.2 6
      vertex 37.6861 16.2 6
    endloop
  endfacet
  facet normal 0 1 0
    outer loop
      vertex 36.3211 16.2 6
      vertex 37.6861 16.2 4
      vertex 36.3211 16.2 4
    endloop
  endfacet
  facet normal 0.979014 -0.203795 0
    outer loop
      vertex 37.2731 14.216 6
      vertex 37.6861 16.2 4
      vertex 37.6861 16.2 6
    endloop
  endfacet
  facet normal 0.979014 -0.203795 0
    outer loop
      vertex 37.6861 16.2 4
      vertex 37.2731 14.216 6
      vertex 37.2731 14.216 4
    endloop
  endfacet
  facet normal 0 -1 0
    outer loop
      vertex 36.0441 14.216 4
      vertex 37.2731 14.216 6
      vertex 36.0441 14.216 6
    endloop
  endfacet
  facet normal 0 -1 -0
    outer loop
      vertex 37.2731 14.216 6
      vertex 36.0441 14.216 4
      vertex 37.2731 14.216 4
    endloop
  endfacet
  facet normal 1 -0 0
    outer loop
      vertex 36.0441 13.64 6
      vertex 36.0441 14.216 4
      vertex 36.0441 14.216 6
    endloop
  endfacet
  facet normal 1 0 0
    outer loop
      vertex 36.0441 14.216 4
      vertex 36.0441 13.64 6
      vertex 36.0441 13.64 4
    endloop
  endfacet
  facet normal 0 1 -0
    outer loop
      vertex 37.1441 13.64 4
      vertex 36.0441 13.64 6
      vertex 37.1441 13.64 6
    endloop
  endfacet
  facet normal 0 1 0
    outer loop
      vertex 36.0441 13.64 6
      vertex 37.1441 13.64 4
      vertex 36.0441 13.64 4
    endloop
  endfacet
  facet normal 0.979212 -0.20284 0
    outer loop
      vertex 36.6801 11.4 6
      vertex 37.1441 13.64 4
      vertex 37.1441 13.64 6
    endloop
  endfacet
  facet normal 0.979212 -0.20284 0
    outer loop
      vertex 37.1441 13.64 4
      vertex 36.6801 11.4 6
      vertex 36.6801 11.4 4
    endloop
  endfacet
  facet normal 0 1 -0
    outer loop
      vertex 37.2781 11.4 4
      vertex 36.6801 11.4 6
      vertex 37.2781 11.4 6
    endloop
  endfacet
  facet normal 0 1 0
    outer loop
      vertex 36.6801 11.4 6
      vertex 37.2781 11.4 4
      vertex 36.6801 11.4 4
    endloop
  endfacet
  facet normal -0.979212 0.20284 0
    outer loop
      vertex 37.2781 11.4 4
      vertex 37.7421 13.64 6
      vertex 37.7421 13.64 4
    endloop
  endfacet
  facet normal -0.979212 0.20284 0
    outer loop
      vertex 37.7421 13.64 6
      vertex 37.2781 11.4 4
      vertex 37.2781 11.4 6
    endloop
  endfacet
  facet normal -0.977816 0.209464 0
    outer loop
      vertex 37.8761 14.216 4
      vertex 38.3011 16.2 6
      vertex 38.3011 16.2 4
    endloop
  endfacet
  facet normal -0.977816 0.209464 0
    outer loop
      vertex 38.3011 16.2 6
      vertex 37.8761 14.216 4
      vertex 37.8761 14.216 6
    endloop
  endfacet
  facet normal 0 1 -0
    outer loop
      vertex 40.2591 16.2 4
      vertex 38.3011 16.2 6
      vertex 40.2591 16.2 6
    endloop
  endfacet
  facet normal 0 1 0
    outer loop
      vertex 38.3011 16.2 6
      vertex 40.2591 16.2 4
      vertex 38.3011 16.2 4
    endloop
  endfacet
  facet normal 0.978518 -0.20616 0
    outer loop
      vertex 39.8411 14.216 6
      vertex 40.2591 16.2 4
      vertex 40.2591 16.2 6
    endloop
  endfacet
  facet normal 0.978518 -0.20616 0
    outer loop
      vertex 40.2591 16.2 4
      vertex 39.8411 14.216 6
      vertex 39.8411 14.216 4
    endloop
  endfacet
  facet normal 0 -1 0
    outer loop
      vertex 37.8761 14.216 4
      vertex 39.8411 14.216 6
      vertex 37.8761 14.216 6
    endloop
  endfacet
  facet normal 0 -1 -0
    outer loop
      vertex 39.8411 14.216 6
      vertex 37.8761 14.216 4
      vertex 39.8411 14.216 4
    endloop
  endfacet
endsolid OpenSCAD_Model
